ISO-10303-21;
HEADER;

/* File generated by Shapr3D Version 26.82.0.10943 */

FILE_DESCRIPTION(('HOOPS Exchange Step'),'2;1');

FILE_NAME('/private/var/mobile/Containers/Data/Application/4BAA6A96-AB08-4434-80E5-6C712A65BC40/tmp/export/temp_export',
'2026-07-29T21:12:12+08:00',
('mobile'),
('Shapr3D Limited'),
'HOOPS Exchange 2026.3',
'Shapr3D',
'Authorized');

FILE_SCHEMA( ('AP242_MANAGED_MODEL_BASED_3D_ENGINEERING_MIM_LF {1 0 10303 442 1 1 4}') );

ENDSEC;

DATA;
#3=(NAMED_UNIT(*)PLANE_ANGLE_UNIT()SI_UNIT($,.RADIAN.));
#4=PLANE_ANGLE_MEASURE_WITH_UNIT(PLANE_ANGLE_MEASURE(0.0174532925),#3);
#5=(CONVERSION_BASED_UNIT('DEGREE',#4)NAMED_UNIT(#6)PLANE_ANGLE_UNIT());
#6=DIMENSIONAL_EXPONENTS(0.,0.,0.,0.,0.,0.,0.);
#7=(NAMED_UNIT(*)SI_UNIT($,.STERADIAN.)SOLID_ANGLE_UNIT());
#8=(LENGTH_UNIT()NAMED_UNIT(*)SI_UNIT(.MILLI.,.METRE.));
#9=UNCERTAINTY_MEASURE_WITH_UNIT(LENGTH_MEASURE(1.000000E-03),#8,'DISTANCE_ACCURACY_VALUE','Maximum Tolerance applied to model');
#10=(GEOMETRIC_REPRESENTATION_CONTEXT(3)GLOBAL_UNCERTAINTY_ASSIGNED_CONTEXT((#9))GLOBAL_UNIT_ASSIGNED_CONTEXT((#8,#5,#7))REPRESENTATION_CONTEXT('','root'));
#12=CARTESIAN_POINT('',(0.,0.,0.));
#13=DIRECTION('',(0.,0.,1.));
#14=DIRECTION('',(1.,0.,0.));
#15=AXIS2_PLACEMENT_3D('TS3D_PRODUCT_CSYS',#12,#13,#14);
#26=(NAMED_UNIT(*)PLANE_ANGLE_UNIT()SI_UNIT($,.RADIAN.));
#27=PLANE_ANGLE_MEASURE_WITH_UNIT(PLANE_ANGLE_MEASURE(0.0174532925),#26);
#28=(CONVERSION_BASED_UNIT('DEGREE',#27)NAMED_UNIT(#29)PLANE_ANGLE_UNIT());
#29=DIMENSIONAL_EXPONENTS(0.,0.,0.,0.,0.,0.,0.);
#30=(NAMED_UNIT(*)SI_UNIT($,.STERADIAN.)SOLID_ANGLE_UNIT());
#31=(LENGTH_UNIT()NAMED_UNIT(*)SI_UNIT(.MILLI.,.METRE.));
#32=UNCERTAINTY_MEASURE_WITH_UNIT(LENGTH_MEASURE(1.000000E-05),#31,'DISTANCE_ACCURACY_VALUE','Maximum Tolerance applied to model');
#33=(GEOMETRIC_REPRESENTATION_CONTEXT(3)GLOBAL_UNCERTAINTY_ASSIGNED_CONTEXT((#32))GLOBAL_UNIT_ASSIGNED_CONTEXT((#31,#28,#30))REPRESENTATION_CONTEXT('','\X2\6309952E\X0\'));
#45=CARTESIAN_POINT('',(0.,0.,0.));
#46=DIRECTION('',(0.,0.,1.));
#47=DIRECTION('',(1.,0.,-0.));
#48=AXIS2_PLACEMENT_3D('',#45,#46,#47);
#49=ITEM_DEFINED_TRANSFORMATION('','',#48,#15);
#50=(REPRESENTATION_RELATIONSHIP('','',#35,#16)REPRESENTATION_RELATIONSHIP_WITH_TRANSFORMATION(#49)SHAPE_REPRESENTATION_RELATIONSHIP());
#51=NEXT_ASSEMBLY_USAGE_OCCURRENCE('\X2\6309952E\X0\_1','\X2\6309952E\X0\','\X2\6309952E\X0\',#25,#44,$);
#52=PRODUCT_DEFINITION_SHAPE('','',#51);
#53=CONTEXT_DEPENDENT_SHAPE_REPRESENTATION(#50,#52);
#55=CARTESIAN_POINT('',(29.25,3.704690062,-3.7));
#56=DIRECTION('',(-1.,-0.,0.));
#57=DIRECTION('',(0.,-1.,0.));
#58=AXIS2_PLACEMENT_3D('',#55,#56,#57);
#59=PLANE('',#58);
#60=CARTESIAN_POINT('',(29.25,20.287345031,-2.150026102));
#61=VERTEX_POINT('',#60);
#62=CARTESIAN_POINT('',(29.25,19.287345031,-1.150026102));
#63=VERTEX_POINT('',#62);
#64=CARTESIAN_POINT('',(29.25,19.287345031,-2.150026102));
#65=DIRECTION('',(1.,0.,-0.));
#66=DIRECTION('',(0.,-1.,0.));
#67=AXIS2_PLACEMENT_3D('',#64,#65,#66);
#68=CIRCLE('',#67,1.);
#69=EDGE_CURVE('',#61,#63,#68,.T.);
#70=ORIENTED_EDGE('',*,*,#69,.F.);
#71=CARTESIAN_POINT('',(29.25,19.287345031,-3.150026102));
#72=VERTEX_POINT('',#71);
#73=CARTESIAN_POINT('',(29.25,19.287345031,-2.150026102));
#74=DIRECTION('',(1.,0.,-0.));
#75=DIRECTION('',(0.,-1.,0.));
#76=AXIS2_PLACEMENT_3D('',#73,#74,#75);
#77=CIRCLE('',#76,1.);
#78=EDGE_CURVE('',#72,#61,#77,.T.);
#79=ORIENTED_EDGE('',*,*,#78,.F.);
#80=CARTESIAN_POINT('',(29.25,20.587345031,-3.150026102));
#81=VERTEX_POINT('',#80);
#82=CARTESIAN_POINT('',(29.25,20.587345031,-3.150026102));
#83=DIRECTION('',(0.,-1.,-0.));
#84=VECTOR('',#83,1.3);
#85=LINE('',#82,#84);
#86=EDGE_CURVE('',#81,#72,#85,.T.);
#87=ORIENTED_EDGE('',*,*,#86,.F.);
#88=CARTESIAN_POINT('',(29.25,21.087345031,-2.650026102));
#89=VERTEX_POINT('',#88);
#90=CARTESIAN_POINT('',(29.25,20.587345031,-2.650026102));
#91=DIRECTION('',(1.,0.,-0.));
#92=DIRECTION('',(0.,-1.,0.));
#93=AXIS2_PLACEMENT_3D('',#90,#91,#92);
#94=CIRCLE('',#93,0.5);
#95=EDGE_CURVE('',#81,#89,#94,.T.);
#96=ORIENTED_EDGE('',*,*,#95,.T.);
#97=CARTESIAN_POINT('',(29.25,21.087345031,-1.650026102));
#98=VERTEX_POINT('',#97);
#99=CARTESIAN_POINT('',(29.25,21.087345031,-2.650026102));
#100=DIRECTION('',(0.,0.,1.));
#101=VECTOR('',#100,1.);
#102=LINE('',#99,#101);
#103=EDGE_CURVE('',#89,#98,#102,.T.);
#104=ORIENTED_EDGE('',*,*,#103,.T.);
#105=CARTESIAN_POINT('',(29.25,20.587345031,-1.150026102));
#106=VERTEX_POINT('',#105);
#107=CARTESIAN_POINT('',(29.25,20.587345031,-1.650026102));
#108=DIRECTION('',(1.,0.,-0.));
#109=DIRECTION('',(0.,-1.,0.));
#110=AXIS2_PLACEMENT_3D('',#107,#108,#109);
#111=CIRCLE('',#110,0.5);
#112=EDGE_CURVE('',#98,#106,#111,.T.);
#113=ORIENTED_EDGE('',*,*,#112,.T.);
#114=CARTESIAN_POINT('',(29.25,20.587345031,-1.150026102));
#115=DIRECTION('',(0.,-1.,0.));
#116=VECTOR('',#115,1.3);
#117=LINE('',#114,#116);
#118=EDGE_CURVE('',#106,#63,#117,.T.);
#119=ORIENTED_EDGE('',*,*,#118,.T.);
#120=EDGE_LOOP('',(#70,#79,#87,#96,#104,#113,#119));
#121=FACE_BOUND('',#120,.T.);
#122=ADVANCED_FACE('',(#121),#59,.F.);
#123=CARTESIAN_POINT('',(28.75,3.704690062,-3.7));
#124=DIRECTION('',(-1.,-0.,0.));
#125=DIRECTION('',(0.,-1.,0.));
#126=AXIS2_PLACEMENT_3D('',#123,#124,#125);
#127=PLANE('',#126);
#128=CARTESIAN_POINT('',(28.75,20.587345031,-3.150026102));
#129=VERTEX_POINT('',#128);
#130=CARTESIAN_POINT('',(28.75,14.387345031,-3.150026102));
#131=VERTEX_POINT('',#130);
#132=CARTESIAN_POINT('',(28.75,20.587345031,-3.150026102));
#133=DIRECTION('',(0.,-1.,-0.));
#134=VECTOR('',#133,6.2);
#135=LINE('',#132,#134);
#136=EDGE_CURVE('',#129,#131,#135,.T.);
#137=ORIENTED_EDGE('',*,*,#136,.T.);
#138=CARTESIAN_POINT('',(28.75,13.887345031,-2.650026102));
#139=VERTEX_POINT('',#138);
#140=CARTESIAN_POINT('',(28.75,14.387345031,-2.650026102));
#141=DIRECTION('',(-1.,-0.,0.));
#142=DIRECTION('',(0.,-1.,0.));
#143=AXIS2_PLACEMENT_3D('',#140,#141,#142);
#144=CIRCLE('',#143,0.5);
#145=EDGE_CURVE('',#131,#139,#144,.T.);
#146=ORIENTED_EDGE('',*,*,#145,.T.);
#147=CARTESIAN_POINT('',(28.75,13.887345031,-1.650026102));
#148=VERTEX_POINT('',#147);
#149=CARTESIAN_POINT('',(28.75,13.887345031,-1.650026102));
#150=DIRECTION('',(0.,0.,-1.));
#151=VECTOR('',#150,1.);
#152=LINE('',#149,#151);
#153=EDGE_CURVE('',#148,#139,#152,.T.);
#154=ORIENTED_EDGE('',*,*,#153,.F.);
#155=CARTESIAN_POINT('',(28.75,14.387345031,-1.150026102));
#156=VERTEX_POINT('',#155);
#157=CARTESIAN_POINT('',(28.75,14.387345031,-1.650026102));
#158=DIRECTION('',(-1.,-0.,0.));
#159=DIRECTION('',(0.,-1.,0.));
#160=AXIS2_PLACEMENT_3D('',#157,#158,#159);
#161=CIRCLE('',#160,0.5);
#162=EDGE_CURVE('',#148,#156,#161,.T.);
#163=ORIENTED_EDGE('',*,*,#162,.T.);
#164=CARTESIAN_POINT('',(28.75,20.587345031,-1.150026102));
#165=VERTEX_POINT('',#164);
#166=CARTESIAN_POINT('',(28.75,20.587345031,-1.150026102));
#167=DIRECTION('',(0.,-1.,0.));
#168=VECTOR('',#167,6.2);
#169=LINE('',#166,#168);
#170=EDGE_CURVE('',#165,#156,#169,.T.);
#171=ORIENTED_EDGE('',*,*,#170,.F.);
#172=CARTESIAN_POINT('',(28.75,21.087345031,-1.650026102));
#173=VERTEX_POINT('',#172);
#174=CARTESIAN_POINT('',(28.75,20.587345031,-1.650026102));
#175=DIRECTION('',(-1.,-0.,0.));
#176=DIRECTION('',(0.,-1.,0.));
#177=AXIS2_PLACEMENT_3D('',#174,#175,#176);
#178=CIRCLE('',#177,0.5);
#179=EDGE_CURVE('',#165,#173,#178,.T.);
#180=ORIENTED_EDGE('',*,*,#179,.T.);
#181=CARTESIAN_POINT('',(28.75,21.087345031,-2.650026102));
#182=VERTEX_POINT('',#181);
#183=CARTESIAN_POINT('',(28.75,21.087345031,-2.650026102));
#184=DIRECTION('',(0.,0.,1.));
#185=VECTOR('',#184,1.);
#186=LINE('',#183,#185);
#187=EDGE_CURVE('',#182,#173,#186,.T.);
#188=ORIENTED_EDGE('',*,*,#187,.F.);
#189=CARTESIAN_POINT('',(28.75,20.587345031,-2.650026102));
#190=DIRECTION('',(-1.,-0.,0.));
#191=DIRECTION('',(0.,-1.,0.));
#192=AXIS2_PLACEMENT_3D('',#189,#190,#191);
#193=CIRCLE('',#192,0.5);
#194=EDGE_CURVE('',#182,#129,#193,.T.);
#195=ORIENTED_EDGE('',*,*,#194,.T.);
#196=EDGE_LOOP('',(#137,#146,#154,#163,#171,#180,#188,#195));
#197=FACE_BOUND('',#196,.T.);
#198=ADVANCED_FACE('',(#197),#127,.T.);
#199=CARTESIAN_POINT('',(29.25,3.704690062,-3.7));
#200=DIRECTION('',(-1.,-0.,0.));
#201=DIRECTION('',(0.,-1.,0.));
#202=AXIS2_PLACEMENT_3D('',#199,#200,#201);
#203=PLANE('',#202);
#204=CARTESIAN_POINT('',(29.25,13.887345031,-1.650026102));
#205=VERTEX_POINT('',#204);
#206=CARTESIAN_POINT('',(29.25,13.887345031,-2.650026102));
#207=VERTEX_POINT('',#206);
#208=CARTESIAN_POINT('',(29.25,13.887345031,-1.650026102));
#209=DIRECTION('',(0.,0.,-1.));
#210=VECTOR('',#209,1.);
#211=LINE('',#208,#210);
#212=EDGE_CURVE('',#205,#207,#211,.T.);
#213=ORIENTED_EDGE('',*,*,#212,.T.);
#214=CARTESIAN_POINT('',(29.25,14.387345031,-3.150026102));
#215=VERTEX_POINT('',#214);
#216=CARTESIAN_POINT('',(29.25,14.387345031,-2.650026102));
#217=DIRECTION('',(1.,0.,-0.));
#218=DIRECTION('',(0.,-1.,0.));
#219=AXIS2_PLACEMENT_3D('',#216,#217,#218);
#220=CIRCLE('',#219,0.5);
#221=EDGE_CURVE('',#207,#215,#220,.T.);
#222=ORIENTED_EDGE('',*,*,#221,.T.);
#223=CARTESIAN_POINT('',(29.25,15.687345031,-3.150026102));
#224=VERTEX_POINT('',#223);
#225=CARTESIAN_POINT('',(29.25,15.687345031,-3.150026102));
#226=DIRECTION('',(0.,-1.,-0.));
#227=VECTOR('',#226,1.3);
#228=LINE('',#225,#227);
#229=EDGE_CURVE('',#224,#215,#228,.T.);
#230=ORIENTED_EDGE('',*,*,#229,.F.);
#231=CARTESIAN_POINT('',(29.25,14.687345031,-2.150026102));
#232=VERTEX_POINT('',#231);
#233=CARTESIAN_POINT('',(29.25,15.687345031,-2.150026102));
#234=DIRECTION('',(1.,0.,-0.));
#235=DIRECTION('',(0.,-1.,0.));
#236=AXIS2_PLACEMENT_3D('',#233,#234,#235);
#237=CIRCLE('',#236,1.);
#238=EDGE_CURVE('',#232,#224,#237,.T.);
#239=ORIENTED_EDGE('',*,*,#238,.F.);
#240=CARTESIAN_POINT('',(29.25,15.687345031,-1.150026102));
#241=VERTEX_POINT('',#240);
#242=CARTESIAN_POINT('',(29.25,15.687345031,-2.150026102));
#243=DIRECTION('',(1.,0.,-0.));
#244=DIRECTION('',(0.,-1.,0.));
#245=AXIS2_PLACEMENT_3D('',#242,#243,#244);
#246=CIRCLE('',#245,1.);
#247=EDGE_CURVE('',#241,#232,#246,.T.);
#248=ORIENTED_EDGE('',*,*,#247,.F.);
#249=CARTESIAN_POINT('',(29.25,14.387345031,-1.150026102));
#250=VERTEX_POINT('',#249);
#251=CARTESIAN_POINT('',(29.25,15.687345031,-1.150026102));
#252=DIRECTION('',(0.,-1.,0.));
#253=VECTOR('',#252,1.3);
#254=LINE('',#251,#253);
#255=EDGE_CURVE('',#241,#250,#254,.T.);
#256=ORIENTED_EDGE('',*,*,#255,.T.);
#257=CARTESIAN_POINT('',(29.25,14.387345031,-1.650026102));
#258=DIRECTION('',(1.,0.,-0.));
#259=DIRECTION('',(0.,-1.,0.));
#260=AXIS2_PLACEMENT_3D('',#257,#258,#259);
#261=CIRCLE('',#260,0.5);
#262=EDGE_CURVE('',#250,#205,#261,.T.);
#263=ORIENTED_EDGE('',*,*,#262,.T.);
#264=EDGE_LOOP('',(#213,#222,#230,#239,#248,#256,#263));
#265=FACE_BOUND('',#264,.T.);
#266=ADVANCED_FACE('',(#265),#203,.F.);
#267=CARTESIAN_POINT('',(29.25,13.887345031,-3.050026102));
#268=DIRECTION('',(-0.,1.,0.));
#269=DIRECTION('',(-1.,-0.,0.));
#270=AXIS2_PLACEMENT_3D('',#267,#268,#269);
#271=PLANE('',#270);
#272=ORIENTED_EDGE('',*,*,#153,.T.);
#273=CARTESIAN_POINT('',(28.75,13.887345031,-2.650026102));
#274=DIRECTION('',(1.,0.,-0.));
#275=VECTOR('',#274,0.5);
#276=LINE('',#273,#275);
#277=EDGE_CURVE('',#139,#207,#276,.T.);
#278=ORIENTED_EDGE('',*,*,#277,.T.);
#279=ORIENTED_EDGE('',*,*,#212,.F.);
#280=CARTESIAN_POINT('',(29.25,13.887345031,-1.650026102));
#281=DIRECTION('',(-1.,-0.,0.));
#282=VECTOR('',#281,0.5);
#283=LINE('',#280,#282);
#284=EDGE_CURVE('',#205,#148,#283,.T.);
#285=ORIENTED_EDGE('',*,*,#284,.T.);
#286=EDGE_LOOP('',(#272,#278,#279,#285));
#287=FACE_BOUND('',#286,.T.);
#288=ADVANCED_FACE('',(#287),#271,.F.);
#289=CARTESIAN_POINT('',(29.25,17.487345031,-1.150026102));
#290=DIRECTION('',(0.,-0.,-1.));
#291=DIRECTION('',(-0.,-1.,0.));
#292=AXIS2_PLACEMENT_3D('',#289,#290,#291);
#293=PLANE('',#292);
#294=ORIENTED_EDGE('',*,*,#118,.F.);
#295=CARTESIAN_POINT('',(29.25,20.587345031,-1.150026102));
#296=DIRECTION('',(-1.,-0.,0.));
#297=VECTOR('',#296,0.5);
#298=LINE('',#295,#297);
#299=EDGE_CURVE('',#106,#165,#298,.T.);
#300=ORIENTED_EDGE('',*,*,#299,.T.);
#301=ORIENTED_EDGE('',*,*,#170,.T.);
#302=CARTESIAN_POINT('',(28.75,14.387345031,-1.150026102));
#303=DIRECTION('',(1.,0.,-0.));
#304=VECTOR('',#303,0.5);
#305=LINE('',#302,#304);
#306=EDGE_CURVE('',#156,#250,#305,.T.);
#307=ORIENTED_EDGE('',*,*,#306,.T.);
#308=ORIENTED_EDGE('',*,*,#255,.F.);
#309=CARTESIAN_POINT('',(30.45,15.687345031,-1.150026102));
#310=VERTEX_POINT('',#309);
#311=CARTESIAN_POINT('',(30.45,15.687345031,-1.150026102));
#312=DIRECTION('',(-1.,-0.,-0.));
#313=VECTOR('',#312,1.2);
#314=LINE('',#311,#313);
#315=EDGE_CURVE('',#310,#241,#314,.T.);
#316=ORIENTED_EDGE('',*,*,#315,.F.);
#317=CARTESIAN_POINT('',(30.45,19.287345031,-1.150026102));
#318=VERTEX_POINT('',#317);
#319=CARTESIAN_POINT('',(30.45,19.287345031,-1.150026102));
#320=DIRECTION('',(0.,-1.,0.));
#321=VECTOR('',#320,3.6);
#322=LINE('',#319,#321);
#323=EDGE_CURVE('',#318,#310,#322,.T.);
#324=ORIENTED_EDGE('',*,*,#323,.F.);
#325=CARTESIAN_POINT('',(30.45,19.287345031,-1.150026102));
#326=DIRECTION('',(-1.,-0.,0.));
#327=VECTOR('',#326,1.2);
#328=LINE('',#325,#327);
#329=EDGE_CURVE('',#318,#63,#328,.T.);
#330=ORIENTED_EDGE('',*,*,#329,.T.);
#331=EDGE_LOOP('',(#294,#300,#301,#307,#308,#316,#324,#330));
#332=FACE_BOUND('',#331,.T.);
#333=ADVANCED_FACE('',(#332),#293,.F.);
#334=CARTESIAN_POINT('',(29.25,21.087345031,-2.050026102));
#335=DIRECTION('',(0.,-1.,0.));
#336=DIRECTION('',(1.,0.,0.));
#337=AXIS2_PLACEMENT_3D('',#334,#335,#336);
#338=PLANE('',#337);
#339=ORIENTED_EDGE('',*,*,#187,.T.);
#340=CARTESIAN_POINT('',(28.75,21.087345031,-1.650026102));
#341=DIRECTION('',(1.,0.,-0.));
#342=VECTOR('',#341,0.5);
#343=LINE('',#340,#342);
#344=EDGE_CURVE('',#173,#98,#343,.T.);
#345=ORIENTED_EDGE('',*,*,#344,.T.);
#346=ORIENTED_EDGE('',*,*,#103,.F.);
#347=CARTESIAN_POINT('',(29.25,21.087345031,-2.650026102));
#348=DIRECTION('',(-1.,-0.,0.));
#349=VECTOR('',#348,0.5);
#350=LINE('',#347,#349);
#351=EDGE_CURVE('',#89,#182,#350,.T.);
#352=ORIENTED_EDGE('',*,*,#351,.T.);
#353=EDGE_LOOP('',(#339,#345,#346,#352));
#354=FACE_BOUND('',#353,.T.);
#355=ADVANCED_FACE('',(#354),#338,.F.);
#356=CARTESIAN_POINT('',(29.25,17.487345031,-3.150026102));
#357=DIRECTION('',(-0.,0.,-1.));
#358=DIRECTION('',(-0.,-1.,-0.));
#359=AXIS2_PLACEMENT_3D('',#356,#357,#358);
#360=PLANE('',#359);
#361=ORIENTED_EDGE('',*,*,#229,.T.);
#362=CARTESIAN_POINT('',(29.25,14.387345031,-3.150026102));
#363=DIRECTION('',(-1.,-0.,0.));
#364=VECTOR('',#363,0.5);
#365=LINE('',#362,#364);
#366=EDGE_CURVE('',#215,#131,#365,.T.);
#367=ORIENTED_EDGE('',*,*,#366,.T.);
#368=ORIENTED_EDGE('',*,*,#136,.F.);
#369=CARTESIAN_POINT('',(28.75,20.587345031,-3.150026102));
#370=DIRECTION('',(1.,0.,-0.));
#371=VECTOR('',#370,0.5);
#372=LINE('',#369,#371);
#373=EDGE_CURVE('',#129,#81,#372,.T.);
#374=ORIENTED_EDGE('',*,*,#373,.T.);
#375=ORIENTED_EDGE('',*,*,#86,.T.);
#376=CARTESIAN_POINT('',(30.45,19.287345031,-3.150026102));
#377=VERTEX_POINT('',#376);
#378=CARTESIAN_POINT('',(30.45,19.287345031,-3.150026102));
#379=DIRECTION('',(-1.,-0.,-0.));
#380=VECTOR('',#379,1.2);
#381=LINE('',#378,#380);
#382=EDGE_CURVE('',#377,#72,#381,.T.);
#383=ORIENTED_EDGE('',*,*,#382,.F.);
#384=CARTESIAN_POINT('',(30.45,15.687345031,-3.150026102));
#385=VERTEX_POINT('',#384);
#386=CARTESIAN_POINT('',(30.45,15.687345031,-3.150026102));
#387=DIRECTION('',(-0.,1.,0.));
#388=VECTOR('',#387,3.6);
#389=LINE('',#386,#388);
#390=EDGE_CURVE('',#385,#377,#389,.T.);
#391=ORIENTED_EDGE('',*,*,#390,.F.);
#392=CARTESIAN_POINT('',(30.45,15.687345031,-3.150026102));
#393=DIRECTION('',(-1.,-0.,0.));
#394=VECTOR('',#393,1.2);
#395=LINE('',#392,#394);
#396=EDGE_CURVE('',#385,#224,#395,.T.);
#397=ORIENTED_EDGE('',*,*,#396,.T.);
#398=EDGE_LOOP('',(#361,#367,#368,#374,#375,#383,#391,#397));
#399=FACE_BOUND('',#398,.T.);
#400=ADVANCED_FACE('',(#399),#360,.T.);
#401=CARTESIAN_POINT('',(29.25,14.387345031,-2.650026102));
#402=DIRECTION('',(1.,0.,0.));
#403=DIRECTION('',(-0.,1.,0.));
#404=AXIS2_PLACEMENT_3D('',#401,#402,#403);
#405=CYLINDRICAL_SURFACE('',#404,0.5);
#406=ORIENTED_EDGE('',*,*,#221,.F.);
#407=ORIENTED_EDGE('',*,*,#277,.F.);
#408=ORIENTED_EDGE('',*,*,#145,.F.);
#409=ORIENTED_EDGE('',*,*,#366,.F.);
#410=EDGE_LOOP('',(#406,#407,#408,#409));
#411=FACE_BOUND('',#410,.T.);
#412=ADVANCED_FACE('',(#411),#405,.T.);
#413=CARTESIAN_POINT('',(29.25,20.587345031,-1.650026102));
#414=DIRECTION('',(-1.,-0.,0.));
#415=DIRECTION('',(0.,-1.,0.));
#416=AXIS2_PLACEMENT_3D('',#413,#414,#415);
#417=CYLINDRICAL_SURFACE('',#416,0.5);
#418=ORIENTED_EDGE('',*,*,#112,.F.);
#419=ORIENTED_EDGE('',*,*,#344,.F.);
#420=ORIENTED_EDGE('',*,*,#179,.F.);
#421=ORIENTED_EDGE('',*,*,#299,.F.);
#422=EDGE_LOOP('',(#418,#419,#420,#421));
#423=FACE_BOUND('',#422,.T.);
#424=ADVANCED_FACE('',(#423),#417,.T.);
#425=CARTESIAN_POINT('',(29.25,14.387345031,-1.650026102));
#426=DIRECTION('',(-1.,-0.,0.));
#427=DIRECTION('',(0.,-1.,0.));
#428=AXIS2_PLACEMENT_3D('',#425,#426,#427);
#429=CYLINDRICAL_SURFACE('',#428,0.5);
#430=ORIENTED_EDGE('',*,*,#262,.F.);
#431=ORIENTED_EDGE('',*,*,#306,.F.);
#432=ORIENTED_EDGE('',*,*,#162,.F.);
#433=ORIENTED_EDGE('',*,*,#284,.F.);
#434=EDGE_LOOP('',(#430,#431,#432,#433));
#435=FACE_BOUND('',#434,.T.);
#436=ADVANCED_FACE('',(#435),#429,.T.);
#437=CARTESIAN_POINT('',(29.25,20.587345031,-2.650026102));
#438=DIRECTION('',(1.,0.,0.));
#439=DIRECTION('',(-0.,1.,0.));
#440=AXIS2_PLACEMENT_3D('',#437,#438,#439);
#441=CYLINDRICAL_SURFACE('',#440,0.5);
#442=ORIENTED_EDGE('',*,*,#95,.F.);
#443=ORIENTED_EDGE('',*,*,#373,.F.);
#444=ORIENTED_EDGE('',*,*,#194,.F.);
#445=ORIENTED_EDGE('',*,*,#351,.F.);
#446=EDGE_LOOP('',(#442,#443,#444,#445));
#447=FACE_BOUND('',#446,.T.);
#448=ADVANCED_FACE('',(#447),#441,.T.);
#449=CARTESIAN_POINT('',(29.25,19.287345031,-2.150026102));
#450=DIRECTION('',(1.,0.,0.));
#451=DIRECTION('',(-0.,1.,0.));
#452=AXIS2_PLACEMENT_3D('',#449,#450,#451);
#453=CYLINDRICAL_SURFACE('',#452,1.);
#454=CARTESIAN_POINT('',(30.45,20.287345031,-2.150026102));
#455=VERTEX_POINT('',#454);
#456=CARTESIAN_POINT('',(30.45,20.287345031,-2.150026102));
#457=DIRECTION('',(-1.,-0.,-0.));
#458=VECTOR('',#457,1.2);
#459=LINE('',#456,#458);
#460=EDGE_CURVE('',#455,#61,#459,.T.);
#461=ORIENTED_EDGE('',*,*,#460,.T.);
#462=ORIENTED_EDGE('',*,*,#69,.T.);
#463=ORIENTED_EDGE('',*,*,#329,.F.);
#464=CARTESIAN_POINT('',(30.45,19.287345031,-2.150026102));
#465=DIRECTION('',(1.,0.,0.));
#466=DIRECTION('',(-0.,1.,0.));
#467=AXIS2_PLACEMENT_3D('',#464,#465,#466);
#468=CIRCLE('',#467,1.);
#469=EDGE_CURVE('',#455,#318,#468,.T.);
#470=ORIENTED_EDGE('',*,*,#469,.F.);
#471=EDGE_LOOP('',(#461,#462,#463,#470));
#472=FACE_BOUND('',#471,.T.);
#473=ADVANCED_FACE('',(#472),#453,.T.);
#474=CARTESIAN_POINT('',(30.45,15.687345031,-2.150026102));
#475=DIRECTION('',(-1.,-0.,0.));
#476=DIRECTION('',(0.,-1.,0.));
#477=AXIS2_PLACEMENT_3D('',#474,#475,#476);
#478=CYLINDRICAL_SURFACE('',#477,1.);
#479=CARTESIAN_POINT('',(30.45,14.687345031,-2.150026102));
#480=VERTEX_POINT('',#479);
#481=CARTESIAN_POINT('',(29.25,14.687345031,-2.150026102));
#482=DIRECTION('',(1.,0.,-0.));
#483=VECTOR('',#482,1.2);
#484=LINE('',#481,#483);
#485=EDGE_CURVE('',#232,#480,#484,.T.);
#486=ORIENTED_EDGE('',*,*,#485,.T.);
#487=CARTESIAN_POINT('',(30.45,15.687345031,-2.150026102));
#488=DIRECTION('',(1.,0.,0.));
#489=DIRECTION('',(-0.,1.,0.));
#490=AXIS2_PLACEMENT_3D('',#487,#488,#489);
#491=CIRCLE('',#490,1.);
#492=EDGE_CURVE('',#310,#480,#491,.T.);
#493=ORIENTED_EDGE('',*,*,#492,.F.);
#494=ORIENTED_EDGE('',*,*,#315,.T.);
#495=ORIENTED_EDGE('',*,*,#247,.T.);
#496=EDGE_LOOP('',(#486,#493,#494,#495));
#497=FACE_BOUND('',#496,.T.);
#498=ADVANCED_FACE('',(#497),#478,.T.);
#499=CARTESIAN_POINT('',(30.45,3.704690062,-3.7));
#500=DIRECTION('',(1.,0.,0.));
#501=DIRECTION('',(-0.,1.,0.));
#502=AXIS2_PLACEMENT_3D('',#499,#500,#501);
#503=PLANE('',#502);
#504=ORIENTED_EDGE('',*,*,#390,.T.);
#505=CARTESIAN_POINT('',(30.45,19.287345031,-2.150026102));
#506=DIRECTION('',(1.,0.,0.));
#507=DIRECTION('',(-0.,1.,0.));
#508=AXIS2_PLACEMENT_3D('',#505,#506,#507);
#509=CIRCLE('',#508,1.);
#510=EDGE_CURVE('',#377,#455,#509,.T.);
#511=ORIENTED_EDGE('',*,*,#510,.T.);
#512=ORIENTED_EDGE('',*,*,#469,.T.);
#513=ORIENTED_EDGE('',*,*,#323,.T.);
#514=ORIENTED_EDGE('',*,*,#492,.T.);
#515=CARTESIAN_POINT('',(30.45,15.687345031,-2.150026102));
#516=DIRECTION('',(1.,0.,0.));
#517=DIRECTION('',(-0.,1.,0.));
#518=AXIS2_PLACEMENT_3D('',#515,#516,#517);
#519=CIRCLE('',#518,1.);
#520=EDGE_CURVE('',#480,#385,#519,.T.);
#521=ORIENTED_EDGE('',*,*,#520,.T.);
#522=EDGE_LOOP('',(#504,#511,#512,#513,#514,#521));
#523=FACE_BOUND('',#522,.T.);
#524=ADVANCED_FACE('',(#523),#503,.T.);
#525=CARTESIAN_POINT('',(29.25,19.287345031,-2.150026102));
#526=DIRECTION('',(1.,0.,0.));
#527=DIRECTION('',(-0.,1.,0.));
#528=AXIS2_PLACEMENT_3D('',#525,#526,#527);
#529=CYLINDRICAL_SURFACE('',#528,1.);
#530=ORIENTED_EDGE('',*,*,#460,.F.);
#531=ORIENTED_EDGE('',*,*,#510,.F.);
#532=ORIENTED_EDGE('',*,*,#382,.T.);
#533=ORIENTED_EDGE('',*,*,#78,.T.);
#534=EDGE_LOOP('',(#530,#531,#532,#533));
#535=FACE_BOUND('',#534,.T.);
#536=ADVANCED_FACE('',(#535),#529,.T.);
#537=CARTESIAN_POINT('',(30.45,15.687345031,-2.150026102));
#538=DIRECTION('',(-1.,-0.,0.));
#539=DIRECTION('',(0.,-1.,0.));
#540=AXIS2_PLACEMENT_3D('',#537,#538,#539);
#541=CYLINDRICAL_SURFACE('',#540,1.);
#542=ORIENTED_EDGE('',*,*,#485,.F.);
#543=ORIENTED_EDGE('',*,*,#238,.T.);
#544=ORIENTED_EDGE('',*,*,#396,.F.);
#545=ORIENTED_EDGE('',*,*,#520,.F.);
#546=EDGE_LOOP('',(#542,#543,#544,#545));
#547=FACE_BOUND('',#546,.T.);
#548=ADVANCED_FACE('',(#547),#541,.T.);
#549=CLOSED_SHELL('',(#122,#198,#266,#288,#333,#355,#400,#412,#424,#436,#448,#473,#498,#524,#536,#548));
#550=MANIFOLD_SOLID_BREP('up',#549);
#551=COLOUR_RGB('',0.898039222,0.180392161,0.180392161);
#552=FILL_AREA_STYLE_COLOUR('',#551);
#553=FILL_AREA_STYLE('',(#552));
#554=SURFACE_STYLE_FILL_AREA(#553);
#555=SURFACE_SIDE_STYLE('',(#554));
#556=SURFACE_STYLE_USAGE(.BOTH.,#555);
#557=PRESENTATION_STYLE_ASSIGNMENT((#556));
#54=STYLED_ITEM('',(#557),#550);
#559=CARTESIAN_POINT('',(29.25,15.704690062,-3.7));
#560=DIRECTION('',(-1.,-0.,0.));
#561=DIRECTION('',(0.,-1.,0.));
#562=AXIS2_PLACEMENT_3D('',#559,#560,#561);
#563=PLANE('',#562);
#564=CARTESIAN_POINT('',(29.25,32.287345031,-2.150026102));
#565=VERTEX_POINT('',#564);
#566=CARTESIAN_POINT('',(29.25,31.287345031,-1.150026102));
#567=VERTEX_POINT('',#566);
#568=CARTESIAN_POINT('',(29.25,31.287345031,-2.150026102));
#569=DIRECTION('',(1.,0.,-0.));
#570=DIRECTION('',(0.,-1.,0.));
#571=AXIS2_PLACEMENT_3D('',#568,#569,#570);
#572=CIRCLE('',#571,1.);
#573=EDGE_CURVE('',#565,#567,#572,.T.);
#574=ORIENTED_EDGE('',*,*,#573,.F.);
#575=CARTESIAN_POINT('',(29.25,31.287345031,-3.150026102));
#576=VERTEX_POINT('',#575);
#577=CARTESIAN_POINT('',(29.25,31.287345031,-2.150026102));
#578=DIRECTION('',(1.,0.,-0.));
#579=DIRECTION('',(0.,-1.,0.));
#580=AXIS2_PLACEMENT_3D('',#577,#578,#579);
#581=CIRCLE('',#580,1.);
#582=EDGE_CURVE('',#576,#565,#581,.T.);
#583=ORIENTED_EDGE('',*,*,#582,.F.);
#584=CARTESIAN_POINT('',(29.25,32.587345031,-3.150026102));
#585=VERTEX_POINT('',#584);
#586=CARTESIAN_POINT('',(29.25,32.587345031,-3.150026102));
#587=DIRECTION('',(0.,-1.,-0.));
#588=VECTOR('',#587,1.3);
#589=LINE('',#586,#588);
#590=EDGE_CURVE('',#585,#576,#589,.T.);
#591=ORIENTED_EDGE('',*,*,#590,.F.);
#592=CARTESIAN_POINT('',(29.25,33.087345031,-2.650026102));
#593=VERTEX_POINT('',#592);
#594=CARTESIAN_POINT('',(29.25,32.587345031,-2.650026102));
#595=DIRECTION('',(1.,0.,-0.));
#596=DIRECTION('',(0.,-1.,0.));
#597=AXIS2_PLACEMENT_3D('',#594,#595,#596);
#598=CIRCLE('',#597,0.5);
#599=EDGE_CURVE('',#585,#593,#598,.T.);
#600=ORIENTED_EDGE('',*,*,#599,.T.);
#601=CARTESIAN_POINT('',(29.25,33.087345031,-1.650026102));
#602=VERTEX_POINT('',#601);
#603=CARTESIAN_POINT('',(29.25,33.087345031,-2.650026102));
#604=DIRECTION('',(0.,0.,1.));
#605=VECTOR('',#604,1.);
#606=LINE('',#603,#605);
#607=EDGE_CURVE('',#593,#602,#606,.T.);
#608=ORIENTED_EDGE('',*,*,#607,.T.);
#609=CARTESIAN_POINT('',(29.25,32.587345031,-1.150026102));
#610=VERTEX_POINT('',#609);
#611=CARTESIAN_POINT('',(29.25,32.587345031,-1.650026102));
#612=DIRECTION('',(1.,0.,-0.));
#613=DIRECTION('',(0.,-1.,0.));
#614=AXIS2_PLACEMENT_3D('',#611,#612,#613);
#615=CIRCLE('',#614,0.5);
#616=EDGE_CURVE('',#602,#610,#615,.T.);
#617=ORIENTED_EDGE('',*,*,#616,.T.);
#618=CARTESIAN_POINT('',(29.25,32.587345031,-1.150026102));
#619=DIRECTION('',(0.,-1.,0.));
#620=VECTOR('',#619,1.3);
#621=LINE('',#618,#620);
#622=EDGE_CURVE('',#610,#567,#621,.T.);
#623=ORIENTED_EDGE('',*,*,#622,.T.);
#624=EDGE_LOOP('',(#574,#583,#591,#600,#608,#617,#623));
#625=FACE_BOUND('',#624,.T.);
#626=ADVANCED_FACE('',(#625),#563,.F.);
#627=CARTESIAN_POINT('',(28.75,15.704690062,-3.7));
#628=DIRECTION('',(-1.,-0.,0.));
#629=DIRECTION('',(0.,-1.,0.));
#630=AXIS2_PLACEMENT_3D('',#627,#628,#629);
#631=PLANE('',#630);
#632=CARTESIAN_POINT('',(28.75,32.587345031,-3.150026102));
#633=VERTEX_POINT('',#632);
#634=CARTESIAN_POINT('',(28.75,26.387345031,-3.150026102));
#635=VERTEX_POINT('',#634);
#636=CARTESIAN_POINT('',(28.75,32.587345031,-3.150026102));
#637=DIRECTION('',(0.,-1.,-0.));
#638=VECTOR('',#637,6.2);
#639=LINE('',#636,#638);
#640=EDGE_CURVE('',#633,#635,#639,.T.);
#641=ORIENTED_EDGE('',*,*,#640,.T.);
#642=CARTESIAN_POINT('',(28.75,25.887345031,-2.650026102));
#643=VERTEX_POINT('',#642);
#644=CARTESIAN_POINT('',(28.75,26.387345031,-2.650026102));
#645=DIRECTION('',(-1.,-0.,0.));
#646=DIRECTION('',(0.,-1.,0.));
#647=AXIS2_PLACEMENT_3D('',#644,#645,#646);
#648=CIRCLE('',#647,0.5);
#649=EDGE_CURVE('',#635,#643,#648,.T.);
#650=ORIENTED_EDGE('',*,*,#649,.T.);
#651=CARTESIAN_POINT('',(28.75,25.887345031,-1.650026102));
#652=VERTEX_POINT('',#651);
#653=CARTESIAN_POINT('',(28.75,25.887345031,-1.650026102));
#654=DIRECTION('',(0.,0.,-1.));
#655=VECTOR('',#654,1.);
#656=LINE('',#653,#655);
#657=EDGE_CURVE('',#652,#643,#656,.T.);
#658=ORIENTED_EDGE('',*,*,#657,.F.);
#659=CARTESIAN_POINT('',(28.75,26.387345031,-1.150026102));
#660=VERTEX_POINT('',#659);
#661=CARTESIAN_POINT('',(28.75,26.387345031,-1.650026102));
#662=DIRECTION('',(-1.,-0.,0.));
#663=DIRECTION('',(0.,-1.,0.));
#664=AXIS2_PLACEMENT_3D('',#661,#662,#663);
#665=CIRCLE('',#664,0.5);
#666=EDGE_CURVE('',#652,#660,#665,.T.);
#667=ORIENTED_EDGE('',*,*,#666,.T.);
#668=CARTESIAN_POINT('',(28.75,32.587345031,-1.150026102));
#669=VERTEX_POINT('',#668);
#670=CARTESIAN_POINT('',(28.75,32.587345031,-1.150026102));
#671=DIRECTION('',(0.,-1.,0.));
#672=VECTOR('',#671,6.2);
#673=LINE('',#670,#672);
#674=EDGE_CURVE('',#669,#660,#673,.T.);
#675=ORIENTED_EDGE('',*,*,#674,.F.);
#676=CARTESIAN_POINT('',(28.75,33.087345031,-1.650026102));
#677=VERTEX_POINT('',#676);
#678=CARTESIAN_POINT('',(28.75,32.587345031,-1.650026102));
#679=DIRECTION('',(-1.,-0.,0.));
#680=DIRECTION('',(0.,-1.,0.));
#681=AXIS2_PLACEMENT_3D('',#678,#679,#680);
#682=CIRCLE('',#681,0.5);
#683=EDGE_CURVE('',#669,#677,#682,.T.);
#684=ORIENTED_EDGE('',*,*,#683,.T.);
#685=CARTESIAN_POINT('',(28.75,33.087345031,-2.650026102));
#686=VERTEX_POINT('',#685);
#687=CARTESIAN_POINT('',(28.75,33.087345031,-2.650026102));
#688=DIRECTION('',(0.,0.,1.));
#689=VECTOR('',#688,1.);
#690=LINE('',#687,#689);
#691=EDGE_CURVE('',#686,#677,#690,.T.);
#692=ORIENTED_EDGE('',*,*,#691,.F.);
#693=CARTESIAN_POINT('',(28.75,32.587345031,-2.650026102));
#694=DIRECTION('',(-1.,-0.,0.));
#695=DIRECTION('',(0.,-1.,0.));
#696=AXIS2_PLACEMENT_3D('',#693,#694,#695);
#697=CIRCLE('',#696,0.5);
#698=EDGE_CURVE('',#686,#633,#697,.T.);
#699=ORIENTED_EDGE('',*,*,#698,.T.);
#700=EDGE_LOOP('',(#641,#650,#658,#667,#675,#684,#692,#699));
#701=FACE_BOUND('',#700,.T.);
#702=ADVANCED_FACE('',(#701),#631,.T.);
#703=CARTESIAN_POINT('',(29.25,15.704690062,-3.7));
#704=DIRECTION('',(-1.,-0.,0.));
#705=DIRECTION('',(0.,-1.,0.));
#706=AXIS2_PLACEMENT_3D('',#703,#704,#705);
#707=PLANE('',#706);
#708=CARTESIAN_POINT('',(29.25,25.887345031,-1.650026102));
#709=VERTEX_POINT('',#708);
#710=CARTESIAN_POINT('',(29.25,25.887345031,-2.650026102));
#711=VERTEX_POINT('',#710);
#712=CARTESIAN_POINT('',(29.25,25.887345031,-1.650026102));
#713=DIRECTION('',(0.,0.,-1.));
#714=VECTOR('',#713,1.);
#715=LINE('',#712,#714);
#716=EDGE_CURVE('',#709,#711,#715,.T.);
#717=ORIENTED_EDGE('',*,*,#716,.T.);
#718=CARTESIAN_POINT('',(29.25,26.387345031,-3.150026102));
#719=VERTEX_POINT('',#718);
#720=CARTESIAN_POINT('',(29.25,26.387345031,-2.650026102));
#721=DIRECTION('',(1.,0.,-0.));
#722=DIRECTION('',(0.,-1.,0.));
#723=AXIS2_PLACEMENT_3D('',#720,#721,#722);
#724=CIRCLE('',#723,0.5);
#725=EDGE_CURVE('',#711,#719,#724,.T.);
#726=ORIENTED_EDGE('',*,*,#725,.T.);
#727=CARTESIAN_POINT('',(29.25,27.687345031,-3.150026102));
#728=VERTEX_POINT('',#727);
#729=CARTESIAN_POINT('',(29.25,27.687345031,-3.150026102));
#730=DIRECTION('',(0.,-1.,-0.));
#731=VECTOR('',#730,1.3);
#732=LINE('',#729,#731);
#733=EDGE_CURVE('',#728,#719,#732,.T.);
#734=ORIENTED_EDGE('',*,*,#733,.F.);
#735=CARTESIAN_POINT('',(29.25,26.687345031,-2.150026102));
#736=VERTEX_POINT('',#735);
#737=CARTESIAN_POINT('',(29.25,27.687345031,-2.150026102));
#738=DIRECTION('',(1.,0.,-0.));
#739=DIRECTION('',(0.,-1.,0.));
#740=AXIS2_PLACEMENT_3D('',#737,#738,#739);
#741=CIRCLE('',#740,1.);
#742=EDGE_CURVE('',#736,#728,#741,.T.);
#743=ORIENTED_EDGE('',*,*,#742,.F.);
#744=CARTESIAN_POINT('',(29.25,27.687345031,-1.150026102));
#745=VERTEX_POINT('',#744);
#746=CARTESIAN_POINT('',(29.25,27.687345031,-2.150026102));
#747=DIRECTION('',(1.,0.,-0.));
#748=DIRECTION('',(0.,-1.,0.));
#749=AXIS2_PLACEMENT_3D('',#746,#747,#748);
#750=CIRCLE('',#749,1.);
#751=EDGE_CURVE('',#745,#736,#750,.T.);
#752=ORIENTED_EDGE('',*,*,#751,.F.);
#753=CARTESIAN_POINT('',(29.25,26.387345031,-1.150026102));
#754=VERTEX_POINT('',#753);
#755=CARTESIAN_POINT('',(29.25,27.687345031,-1.150026102));
#756=DIRECTION('',(0.,-1.,0.));
#757=VECTOR('',#756,1.3);
#758=LINE('',#755,#757);
#759=EDGE_CURVE('',#745,#754,#758,.T.);
#760=ORIENTED_EDGE('',*,*,#759,.T.);
#761=CARTESIAN_POINT('',(29.25,26.387345031,-1.650026102));
#762=DIRECTION('',(1.,0.,-0.));
#763=DIRECTION('',(0.,-1.,0.));
#764=AXIS2_PLACEMENT_3D('',#761,#762,#763);
#765=CIRCLE('',#764,0.5);
#766=EDGE_CURVE('',#754,#709,#765,.T.);
#767=ORIENTED_EDGE('',*,*,#766,.T.);
#768=EDGE_LOOP('',(#717,#726,#734,#743,#752,#760,#767));
#769=FACE_BOUND('',#768,.T.);
#770=ADVANCED_FACE('',(#769),#707,.F.);
#771=CARTESIAN_POINT('',(29.25,25.887345031,-3.050026102));
#772=DIRECTION('',(-0.,1.,0.));
#773=DIRECTION('',(-1.,-0.,0.));
#774=AXIS2_PLACEMENT_3D('',#771,#772,#773);
#775=PLANE('',#774);
#776=ORIENTED_EDGE('',*,*,#657,.T.);
#777=CARTESIAN_POINT('',(28.75,25.887345031,-2.650026102));
#778=DIRECTION('',(1.,0.,-0.));
#779=VECTOR('',#778,0.5);
#780=LINE('',#777,#779);
#781=EDGE_CURVE('',#643,#711,#780,.T.);
#782=ORIENTED_EDGE('',*,*,#781,.T.);
#783=ORIENTED_EDGE('',*,*,#716,.F.);
#784=CARTESIAN_POINT('',(29.25,25.887345031,-1.650026102));
#785=DIRECTION('',(-1.,-0.,0.));
#786=VECTOR('',#785,0.5);
#787=LINE('',#784,#786);
#788=EDGE_CURVE('',#709,#652,#787,.T.);
#789=ORIENTED_EDGE('',*,*,#788,.T.);
#790=EDGE_LOOP('',(#776,#782,#783,#789));
#791=FACE_BOUND('',#790,.T.);
#792=ADVANCED_FACE('',(#791),#775,.F.);
#793=CARTESIAN_POINT('',(29.25,29.487345031,-1.150026102));
#794=DIRECTION('',(0.,-0.,-1.));
#795=DIRECTION('',(-0.,-1.,0.));
#796=AXIS2_PLACEMENT_3D('',#793,#794,#795);
#797=PLANE('',#796);
#798=ORIENTED_EDGE('',*,*,#622,.F.);
#799=CARTESIAN_POINT('',(29.25,32.587345031,-1.150026102));
#800=DIRECTION('',(-1.,-0.,0.));
#801=VECTOR('',#800,0.5);
#802=LINE('',#799,#801);
#803=EDGE_CURVE('',#610,#669,#802,.T.);
#804=ORIENTED_EDGE('',*,*,#803,.T.);
#805=ORIENTED_EDGE('',*,*,#674,.T.);
#806=CARTESIAN_POINT('',(28.75,26.387345031,-1.150026102));
#807=DIRECTION('',(1.,0.,-0.));
#808=VECTOR('',#807,0.5);
#809=LINE('',#806,#808);
#810=EDGE_CURVE('',#660,#754,#809,.T.);
#811=ORIENTED_EDGE('',*,*,#810,.T.);
#812=ORIENTED_EDGE('',*,*,#759,.F.);
#813=CARTESIAN_POINT('',(30.45,27.687345031,-1.150026102));
#814=VERTEX_POINT('',#813);
#815=CARTESIAN_POINT('',(30.45,27.687345031,-1.150026102));
#816=DIRECTION('',(-1.,-0.,-0.));
#817=VECTOR('',#816,1.2);
#818=LINE('',#815,#817);
#819=EDGE_CURVE('',#814,#745,#818,.T.);
#820=ORIENTED_EDGE('',*,*,#819,.F.);
#821=CARTESIAN_POINT('',(30.45,31.287345031,-1.150026102));
#822=VERTEX_POINT('',#821);
#823=CARTESIAN_POINT('',(30.45,31.287345031,-1.150026102));
#824=DIRECTION('',(0.,-1.,0.));
#825=VECTOR('',#824,3.6);
#826=LINE('',#823,#825);
#827=EDGE_CURVE('',#822,#814,#826,.T.);
#828=ORIENTED_EDGE('',*,*,#827,.F.);
#829=CARTESIAN_POINT('',(30.45,31.287345031,-1.150026102));
#830=DIRECTION('',(-1.,-0.,0.));
#831=VECTOR('',#830,1.2);
#832=LINE('',#829,#831);
#833=EDGE_CURVE('',#822,#567,#832,.T.);
#834=ORIENTED_EDGE('',*,*,#833,.T.);
#835=EDGE_LOOP('',(#798,#804,#805,#811,#812,#820,#828,#834));
#836=FACE_BOUND('',#835,.T.);
#837=ADVANCED_FACE('',(#836),#797,.F.);
#838=CARTESIAN_POINT('',(29.25,33.087345031,-2.050026102));
#839=DIRECTION('',(0.,-1.,0.));
#840=DIRECTION('',(1.,0.,0.));
#841=AXIS2_PLACEMENT_3D('',#838,#839,#840);
#842=PLANE('',#841);
#843=ORIENTED_EDGE('',*,*,#691,.T.);
#844=CARTESIAN_POINT('',(28.75,33.087345031,-1.650026102));
#845=DIRECTION('',(1.,0.,-0.));
#846=VECTOR('',#845,0.5);
#847=LINE('',#844,#846);
#848=EDGE_CURVE('',#677,#602,#847,.T.);
#849=ORIENTED_EDGE('',*,*,#848,.T.);
#850=ORIENTED_EDGE('',*,*,#607,.F.);
#851=CARTESIAN_POINT('',(29.25,33.087345031,-2.650026102));
#852=DIRECTION('',(-1.,-0.,0.));
#853=VECTOR('',#852,0.5);
#854=LINE('',#851,#853);
#855=EDGE_CURVE('',#593,#686,#854,.T.);
#856=ORIENTED_EDGE('',*,*,#855,.T.);
#857=EDGE_LOOP('',(#843,#849,#850,#856));
#858=FACE_BOUND('',#857,.T.);
#859=ADVANCED_FACE('',(#858),#842,.F.);
#860=CARTESIAN_POINT('',(29.25,29.487345031,-3.150026102));
#861=DIRECTION('',(-0.,0.,-1.));
#862=DIRECTION('',(-0.,-1.,-0.));
#863=AXIS2_PLACEMENT_3D('',#860,#861,#862);
#864=PLANE('',#863);
#865=ORIENTED_EDGE('',*,*,#733,.T.);
#866=CARTESIAN_POINT('',(29.25,26.387345031,-3.150026102));
#867=DIRECTION('',(-1.,-0.,0.));
#868=VECTOR('',#867,0.5);
#869=LINE('',#866,#868);
#870=EDGE_CURVE('',#719,#635,#869,.T.);
#871=ORIENTED_EDGE('',*,*,#870,.T.);
#872=ORIENTED_EDGE('',*,*,#640,.F.);
#873=CARTESIAN_POINT('',(28.75,32.587345031,-3.150026102));
#874=DIRECTION('',(1.,0.,-0.));
#875=VECTOR('',#874,0.5);
#876=LINE('',#873,#875);
#877=EDGE_CURVE('',#633,#585,#876,.T.);
#878=ORIENTED_EDGE('',*,*,#877,.T.);
#879=ORIENTED_EDGE('',*,*,#590,.T.);
#880=CARTESIAN_POINT('',(30.45,31.287345031,-3.150026102));
#881=VERTEX_POINT('',#880);
#882=CARTESIAN_POINT('',(30.45,31.287345031,-3.150026102));
#883=DIRECTION('',(-1.,-0.,-0.));
#884=VECTOR('',#883,1.2);
#885=LINE('',#882,#884);
#886=EDGE_CURVE('',#881,#576,#885,.T.);
#887=ORIENTED_EDGE('',*,*,#886,.F.);
#888=CARTESIAN_POINT('',(30.45,27.687345031,-3.150026102));
#889=VERTEX_POINT('',#888);
#890=CARTESIAN_POINT('',(30.45,27.687345031,-3.150026102));
#891=DIRECTION('',(-0.,1.,0.));
#892=VECTOR('',#891,3.6);
#893=LINE('',#890,#892);
#894=EDGE_CURVE('',#889,#881,#893,.T.);
#895=ORIENTED_EDGE('',*,*,#894,.F.);
#896=CARTESIAN_POINT('',(30.45,27.687345031,-3.150026102));
#897=DIRECTION('',(-1.,-0.,0.));
#898=VECTOR('',#897,1.2);
#899=LINE('',#896,#898);
#900=EDGE_CURVE('',#889,#728,#899,.T.);
#901=ORIENTED_EDGE('',*,*,#900,.T.);
#902=EDGE_LOOP('',(#865,#871,#872,#878,#879,#887,#895,#901));
#903=FACE_BOUND('',#902,.T.);
#904=ADVANCED_FACE('',(#903),#864,.T.);
#905=CARTESIAN_POINT('',(29.25,26.387345031,-2.650026102));
#906=DIRECTION('',(1.,0.,0.));
#907=DIRECTION('',(-0.,1.,0.));
#908=AXIS2_PLACEMENT_3D('',#905,#906,#907);
#909=CYLINDRICAL_SURFACE('',#908,0.5);
#910=ORIENTED_EDGE('',*,*,#725,.F.);
#911=ORIENTED_EDGE('',*,*,#781,.F.);
#912=ORIENTED_EDGE('',*,*,#649,.F.);
#913=ORIENTED_EDGE('',*,*,#870,.F.);
#914=EDGE_LOOP('',(#910,#911,#912,#913));
#915=FACE_BOUND('',#914,.T.);
#916=ADVANCED_FACE('',(#915),#909,.T.);
#917=CARTESIAN_POINT('',(29.25,32.587345031,-1.650026102));
#918=DIRECTION('',(-1.,-0.,0.));
#919=DIRECTION('',(0.,-1.,0.));
#920=AXIS2_PLACEMENT_3D('',#917,#918,#919);
#921=CYLINDRICAL_SURFACE('',#920,0.5);
#922=ORIENTED_EDGE('',*,*,#616,.F.);
#923=ORIENTED_EDGE('',*,*,#848,.F.);
#924=ORIENTED_EDGE('',*,*,#683,.F.);
#925=ORIENTED_EDGE('',*,*,#803,.F.);
#926=EDGE_LOOP('',(#922,#923,#924,#925));
#927=FACE_BOUND('',#926,.T.);
#928=ADVANCED_FACE('',(#927),#921,.T.);
#929=CARTESIAN_POINT('',(29.25,26.387345031,-1.650026102));
#930=DIRECTION('',(-1.,-0.,0.));
#931=DIRECTION('',(0.,-1.,0.));
#932=AXIS2_PLACEMENT_3D('',#929,#930,#931);
#933=CYLINDRICAL_SURFACE('',#932,0.5);
#934=ORIENTED_EDGE('',*,*,#766,.F.);
#935=ORIENTED_EDGE('',*,*,#810,.F.);
#936=ORIENTED_EDGE('',*,*,#666,.F.);
#937=ORIENTED_EDGE('',*,*,#788,.F.);
#938=EDGE_LOOP('',(#934,#935,#936,#937));
#939=FACE_BOUND('',#938,.T.);
#940=ADVANCED_FACE('',(#939),#933,.T.);
#941=CARTESIAN_POINT('',(29.25,32.587345031,-2.650026102));
#942=DIRECTION('',(1.,0.,0.));
#943=DIRECTION('',(-0.,1.,0.));
#944=AXIS2_PLACEMENT_3D('',#941,#942,#943);
#945=CYLINDRICAL_SURFACE('',#944,0.5);
#946=ORIENTED_EDGE('',*,*,#599,.F.);
#947=ORIENTED_EDGE('',*,*,#877,.F.);
#948=ORIENTED_EDGE('',*,*,#698,.F.);
#949=ORIENTED_EDGE('',*,*,#855,.F.);
#950=EDGE_LOOP('',(#946,#947,#948,#949));
#951=FACE_BOUND('',#950,.T.);
#952=ADVANCED_FACE('',(#951),#945,.T.);
#953=CARTESIAN_POINT('',(29.25,31.287345031,-2.150026102));
#954=DIRECTION('',(1.,0.,0.));
#955=DIRECTION('',(-0.,1.,0.));
#956=AXIS2_PLACEMENT_3D('',#953,#954,#955);
#957=CYLINDRICAL_SURFACE('',#956,1.);
#958=CARTESIAN_POINT('',(30.45,32.287345031,-2.150026102));
#959=VERTEX_POINT('',#958);
#960=CARTESIAN_POINT('',(30.45,32.287345031,-2.150026102));
#961=DIRECTION('',(-1.,-0.,-0.));
#962=VECTOR('',#961,1.2);
#963=LINE('',#960,#962);
#964=EDGE_CURVE('',#959,#565,#963,.T.);
#965=ORIENTED_EDGE('',*,*,#964,.T.);
#966=ORIENTED_EDGE('',*,*,#573,.T.);
#967=ORIENTED_EDGE('',*,*,#833,.F.);
#968=CARTESIAN_POINT('',(30.45,31.287345031,-2.150026102));
#969=DIRECTION('',(1.,0.,0.));
#970=DIRECTION('',(-0.,1.,0.));
#971=AXIS2_PLACEMENT_3D('',#968,#969,#970);
#972=CIRCLE('',#971,1.);
#973=EDGE_CURVE('',#959,#822,#972,.T.);
#974=ORIENTED_EDGE('',*,*,#973,.F.);
#975=EDGE_LOOP('',(#965,#966,#967,#974));
#976=FACE_BOUND('',#975,.T.);
#977=ADVANCED_FACE('',(#976),#957,.T.);
#978=CARTESIAN_POINT('',(30.45,27.687345031,-2.150026102));
#979=DIRECTION('',(-1.,-0.,0.));
#980=DIRECTION('',(0.,-1.,0.));
#981=AXIS2_PLACEMENT_3D('',#978,#979,#980);
#982=CYLINDRICAL_SURFACE('',#981,1.);
#983=CARTESIAN_POINT('',(30.45,26.687345031,-2.150026102));
#984=VERTEX_POINT('',#983);
#985=CARTESIAN_POINT('',(29.25,26.687345031,-2.150026102));
#986=DIRECTION('',(1.,0.,-0.));
#987=VECTOR('',#986,1.2);
#988=LINE('',#985,#987);
#989=EDGE_CURVE('',#736,#984,#988,.T.);
#990=ORIENTED_EDGE('',*,*,#989,.T.);
#991=CARTESIAN_POINT('',(30.45,27.687345031,-2.150026102));
#992=DIRECTION('',(1.,0.,0.));
#993=DIRECTION('',(-0.,1.,0.));
#994=AXIS2_PLACEMENT_3D('',#991,#992,#993);
#995=CIRCLE('',#994,1.);
#996=EDGE_CURVE('',#814,#984,#995,.T.);
#997=ORIENTED_EDGE('',*,*,#996,.F.);
#998=ORIENTED_EDGE('',*,*,#819,.T.);
#999=ORIENTED_EDGE('',*,*,#751,.T.);
#1000=EDGE_LOOP('',(#990,#997,#998,#999));
#1001=FACE_BOUND('',#1000,.T.);
#1002=ADVANCED_FACE('',(#1001),#982,.T.);
#1003=CARTESIAN_POINT('',(30.45,15.704690062,-3.7));
#1004=DIRECTION('',(1.,0.,0.));
#1005=DIRECTION('',(-0.,1.,0.));
#1006=AXIS2_PLACEMENT_3D('',#1003,#1004,#1005);
#1007=PLANE('',#1006);
#1008=ORIENTED_EDGE('',*,*,#894,.T.);
#1009=CARTESIAN_POINT('',(30.45,31.287345031,-2.150026102));
#1010=DIRECTION('',(1.,0.,0.));
#1011=DIRECTION('',(-0.,1.,0.));
#1012=AXIS2_PLACEMENT_3D('',#1009,#1010,#1011);
#1013=CIRCLE('',#1012,1.);
#1014=EDGE_CURVE('',#881,#959,#1013,.T.);
#1015=ORIENTED_EDGE('',*,*,#1014,.T.);
#1016=ORIENTED_EDGE('',*,*,#973,.T.);
#1017=ORIENTED_EDGE('',*,*,#827,.T.);
#1018=ORIENTED_EDGE('',*,*,#996,.T.);
#1019=CARTESIAN_POINT('',(30.45,27.687345031,-2.150026102));
#1020=DIRECTION('',(1.,0.,0.));
#1021=DIRECTION('',(-0.,1.,0.));
#1022=AXIS2_PLACEMENT_3D('',#1019,#1020,#1021);
#1023=CIRCLE('',#1022,1.);
#1024=EDGE_CURVE('',#984,#889,#1023,.T.);
#1025=ORIENTED_EDGE('',*,*,#1024,.T.);
#1026=EDGE_LOOP('',(#1008,#1015,#1016,#1017,#1018,#1025));
#1027=FACE_BOUND('',#1026,.T.);
#1028=ADVANCED_FACE('',(#1027),#1007,.T.);
#1029=CARTESIAN_POINT('',(29.25,31.287345031,-2.150026102));
#1030=DIRECTION('',(1.,0.,0.));
#1031=DIRECTION('',(-0.,1.,0.));
#1032=AXIS2_PLACEMENT_3D('',#1029,#1030,#1031);
#1033=CYLINDRICAL_SURFACE('',#1032,1.);
#1034=ORIENTED_EDGE('',*,*,#964,.F.);
#1035=ORIENTED_EDGE('',*,*,#1014,.F.);
#1036=ORIENTED_EDGE('',*,*,#886,.T.);
#1037=ORIENTED_EDGE('',*,*,#582,.T.);
#1038=EDGE_LOOP('',(#1034,#1035,#1036,#1037));
#1039=FACE_BOUND('',#1038,.T.);
#1040=ADVANCED_FACE('',(#1039),#1033,.T.);
#1041=CARTESIAN_POINT('',(30.45,27.687345031,-2.150026102));
#1042=DIRECTION('',(-1.,-0.,0.));
#1043=DIRECTION('',(0.,-1.,0.));
#1044=AXIS2_PLACEMENT_3D('',#1041,#1042,#1043);
#1045=CYLINDRICAL_SURFACE('',#1044,1.);
#1046=ORIENTED_EDGE('',*,*,#989,.F.);
#1047=ORIENTED_EDGE('',*,*,#742,.T.);
#1048=ORIENTED_EDGE('',*,*,#900,.F.);
#1049=ORIENTED_EDGE('',*,*,#1024,.F.);
#1050=EDGE_LOOP('',(#1046,#1047,#1048,#1049));
#1051=FACE_BOUND('',#1050,.T.);
#1052=ADVANCED_FACE('',(#1051),#1045,.T.);
#1053=CLOSED_SHELL('',(#626,#702,#770,#792,#837,#859,#904,#916,#928,#940,#952,#977,#1002,#1028,#1040,#1052));
#1054=MANIFOLD_SOLID_BREP('down',#1053);
#558=STYLED_ITEM('',(#557),#1054);
#1056=CARTESIAN_POINT('',(-29.25,43.27,-3.7));
#1057=DIRECTION('',(1.,0.,0.));
#1058=DIRECTION('',(-0.,1.,0.));
#1059=AXIS2_PLACEMENT_3D('',#1056,#1057,#1058);
#1060=PLANE('',#1059);
#1061=CARTESIAN_POINT('',(-29.25,26.687345031,-2.150026102));
#1062=VERTEX_POINT('',#1061);
#1063=CARTESIAN_POINT('',(-29.25,27.687345031,-1.150026102));
#1064=VERTEX_POINT('',#1063);
#1065=CARTESIAN_POINT('',(-29.25,27.687345031,-2.150026102));
#1066=DIRECTION('',(-1.,-0.,-0.));
#1067=DIRECTION('',(-0.,1.,0.));
#1068=AXIS2_PLACEMENT_3D('',#1065,#1066,#1067);
#1069=CIRCLE('',#1068,1.);
#1070=EDGE_CURVE('',#1062,#1064,#1069,.T.);
#1071=ORIENTED_EDGE('',*,*,#1070,.F.);
#1072=CARTESIAN_POINT('',(-29.25,27.687345031,-3.150026102));
#1073=VERTEX_POINT('',#1072);
#1074=CARTESIAN_POINT('',(-29.25,27.687345031,-2.150026102));
#1075=DIRECTION('',(-1.,-0.,-0.));
#1076=DIRECTION('',(-0.,1.,0.));
#1077=AXIS2_PLACEMENT_3D('',#1074,#1075,#1076);
#1078=CIRCLE('',#1077,1.);
#1079=EDGE_CURVE('',#1073,#1062,#1078,.T.);
#1080=ORIENTED_EDGE('',*,*,#1079,.F.);
#1081=CARTESIAN_POINT('',(-29.25,26.387345031,-3.150026102));
#1082=VERTEX_POINT('',#1081);
#1083=CARTESIAN_POINT('',(-29.25,26.387345031,-3.150026102));
#1084=DIRECTION('',(-0.,1.,-0.));
#1085=VECTOR('',#1084,1.3);
#1086=LINE('',#1083,#1085);
#1087=EDGE_CURVE('',#1082,#1073,#1086,.T.);
#1088=ORIENTED_EDGE('',*,*,#1087,.F.);
#1089=CARTESIAN_POINT('',(-29.25,25.887345031,-2.650026102));
#1090=VERTEX_POINT('',#1089);
#1091=CARTESIAN_POINT('',(-29.25,26.387345031,-2.650026102));
#1092=DIRECTION('',(-1.,-0.,-0.));
#1093=DIRECTION('',(-0.,1.,0.));
#1094=AXIS2_PLACEMENT_3D('',#1091,#1092,#1093);
#1095=CIRCLE('',#1094,0.5);
#1096=EDGE_CURVE('',#1082,#1090,#1095,.T.);
#1097=ORIENTED_EDGE('',*,*,#1096,.T.);
#1098=CARTESIAN_POINT('',(-29.25,25.887345031,-1.650026102));
#1099=VERTEX_POINT('',#1098);
#1100=CARTESIAN_POINT('',(-29.25,25.887345031,-2.650026102));
#1101=DIRECTION('',(0.,0.,1.));
#1102=VECTOR('',#1101,1.);
#1103=LINE('',#1100,#1102);
#1104=EDGE_CURVE('',#1090,#1099,#1103,.T.);
#1105=ORIENTED_EDGE('',*,*,#1104,.T.);
#1106=CARTESIAN_POINT('',(-29.25,26.387345031,-1.150026102));
#1107=VERTEX_POINT('',#1106);
#1108=CARTESIAN_POINT('',(-29.25,26.387345031,-1.650026102));
#1109=DIRECTION('',(-1.,-0.,-0.));
#1110=DIRECTION('',(-0.,1.,0.));
#1111=AXIS2_PLACEMENT_3D('',#1108,#1109,#1110);
#1112=CIRCLE('',#1111,0.5);
#1113=EDGE_CURVE('',#1099,#1107,#1112,.T.);
#1114=ORIENTED_EDGE('',*,*,#1113,.T.);
#1115=CARTESIAN_POINT('',(-29.25,26.387345031,-1.150026102));
#1116=DIRECTION('',(-0.,1.,0.));
#1117=VECTOR('',#1116,1.3);
#1118=LINE('',#1115,#1117);
#1119=EDGE_CURVE('',#1107,#1064,#1118,.T.);
#1120=ORIENTED_EDGE('',*,*,#1119,.T.);
#1121=EDGE_LOOP('',(#1071,#1080,#1088,#1097,#1105,#1114,#1120));
#1122=FACE_BOUND('',#1121,.T.);
#1123=ADVANCED_FACE('',(#1122),#1060,.F.);
#1124=CARTESIAN_POINT('',(-28.75,43.27,-3.7));
#1125=DIRECTION('',(1.,0.,0.));
#1126=DIRECTION('',(-0.,1.,0.));
#1127=AXIS2_PLACEMENT_3D('',#1124,#1125,#1126);
#1128=PLANE('',#1127);
#1129=CARTESIAN_POINT('',(-28.75,26.387345031,-3.150026102));
#1130=VERTEX_POINT('',#1129);
#1131=CARTESIAN_POINT('',(-28.75,32.587345031,-3.150026102));
#1132=VERTEX_POINT('',#1131);
#1133=CARTESIAN_POINT('',(-28.75,26.387345031,-3.150026102));
#1134=DIRECTION('',(-0.,1.,-0.));
#1135=VECTOR('',#1134,6.2);
#1136=LINE('',#1133,#1135);
#1137=EDGE_CURVE('',#1130,#1132,#1136,.T.);
#1138=ORIENTED_EDGE('',*,*,#1137,.T.);
#1139=CARTESIAN_POINT('',(-28.75,33.087345031,-2.650026102));
#1140=VERTEX_POINT('',#1139);
#1141=CARTESIAN_POINT('',(-28.75,32.587345031,-2.650026102));
#1142=DIRECTION('',(1.,0.,0.));
#1143=DIRECTION('',(-0.,1.,0.));
#1144=AXIS2_PLACEMENT_3D('',#1141,#1142,#1143);
#1145=CIRCLE('',#1144,0.5);
#1146=EDGE_CURVE('',#1132,#1140,#1145,.T.);
#1147=ORIENTED_EDGE('',*,*,#1146,.T.);
#1148=CARTESIAN_POINT('',(-28.75,33.087345031,-1.650026102));
#1149=VERTEX_POINT('',#1148);
#1150=CARTESIAN_POINT('',(-28.75,33.087345031,-1.650026102));
#1151=DIRECTION('',(0.,0.,-1.));
#1152=VECTOR('',#1151,1.);
#1153=LINE('',#1150,#1152);
#1154=EDGE_CURVE('',#1149,#1140,#1153,.T.);
#1155=ORIENTED_EDGE('',*,*,#1154,.F.);
#1156=CARTESIAN_POINT('',(-28.75,32.587345031,-1.150026102));
#1157=VERTEX_POINT('',#1156);
#1158=CARTESIAN_POINT('',(-28.75,32.587345031,-1.650026102));
#1159=DIRECTION('',(1.,0.,0.));
#1160=DIRECTION('',(-0.,1.,0.));
#1161=AXIS2_PLACEMENT_3D('',#1158,#1159,#1160);
#1162=CIRCLE('',#1161,0.5);
#1163=EDGE_CURVE('',#1149,#1157,#1162,.T.);
#1164=ORIENTED_EDGE('',*,*,#1163,.T.);
#1165=CARTESIAN_POINT('',(-28.75,26.387345031,-1.150026102));
#1166=VERTEX_POINT('',#1165);
#1167=CARTESIAN_POINT('',(-28.75,26.387345031,-1.150026102));
#1168=DIRECTION('',(-0.,1.,0.));
#1169=VECTOR('',#1168,6.2);
#1170=LINE('',#1167,#1169);
#1171=EDGE_CURVE('',#1166,#1157,#1170,.T.);
#1172=ORIENTED_EDGE('',*,*,#1171,.F.);
#1173=CARTESIAN_POINT('',(-28.75,25.887345031,-1.650026102));
#1174=VERTEX_POINT('',#1173);
#1175=CARTESIAN_POINT('',(-28.75,26.387345031,-1.650026102));
#1176=DIRECTION('',(1.,0.,0.));
#1177=DIRECTION('',(-0.,1.,0.));
#1178=AXIS2_PLACEMENT_3D('',#1175,#1176,#1177);
#1179=CIRCLE('',#1178,0.5);
#1180=EDGE_CURVE('',#1166,#1174,#1179,.T.);
#1181=ORIENTED_EDGE('',*,*,#1180,.T.);
#1182=CARTESIAN_POINT('',(-28.75,25.887345031,-2.650026102));
#1183=VERTEX_POINT('',#1182);
#1184=CARTESIAN_POINT('',(-28.75,25.887345031,-2.650026102));
#1185=DIRECTION('',(0.,0.,1.));
#1186=VECTOR('',#1185,1.);
#1187=LINE('',#1184,#1186);
#1188=EDGE_CURVE('',#1183,#1174,#1187,.T.);
#1189=ORIENTED_EDGE('',*,*,#1188,.F.);
#1190=CARTESIAN_POINT('',(-28.75,26.387345031,-2.650026102));
#1191=DIRECTION('',(1.,0.,0.));
#1192=DIRECTION('',(-0.,1.,0.));
#1193=AXIS2_PLACEMENT_3D('',#1190,#1191,#1192);
#1194=CIRCLE('',#1193,0.5);
#1195=EDGE_CURVE('',#1183,#1130,#1194,.T.);
#1196=ORIENTED_EDGE('',*,*,#1195,.T.);
#1197=EDGE_LOOP('',(#1138,#1147,#1155,#1164,#1172,#1181,#1189,#1196));
#1198=FACE_BOUND('',#1197,.T.);
#1199=ADVANCED_FACE('',(#1198),#1128,.T.);
#1200=CARTESIAN_POINT('',(-29.25,43.27,-3.7));
#1201=DIRECTION('',(1.,0.,0.));
#1202=DIRECTION('',(-0.,1.,0.));
#1203=AXIS2_PLACEMENT_3D('',#1200,#1201,#1202);
#1204=PLANE('',#1203);
#1205=CARTESIAN_POINT('',(-29.25,33.087345031,-1.650026102));
#1206=VERTEX_POINT('',#1205);
#1207=CARTESIAN_POINT('',(-29.25,33.087345031,-2.650026102));
#1208=VERTEX_POINT('',#1207);
#1209=CARTESIAN_POINT('',(-29.25,33.087345031,-1.650026102));
#1210=DIRECTION('',(0.,0.,-1.));
#1211=VECTOR('',#1210,1.);
#1212=LINE('',#1209,#1211);
#1213=EDGE_CURVE('',#1206,#1208,#1212,.T.);
#1214=ORIENTED_EDGE('',*,*,#1213,.T.);
#1215=CARTESIAN_POINT('',(-29.25,32.587345031,-3.150026102));
#1216=VERTEX_POINT('',#1215);
#1217=CARTESIAN_POINT('',(-29.25,32.587345031,-2.650026102));
#1218=DIRECTION('',(-1.,-0.,-0.));
#1219=DIRECTION('',(-0.,1.,0.));
#1220=AXIS2_PLACEMENT_3D('',#1217,#1218,#1219);
#1221=CIRCLE('',#1220,0.5);
#1222=EDGE_CURVE('',#1208,#1216,#1221,.T.);
#1223=ORIENTED_EDGE('',*,*,#1222,.T.);
#1224=CARTESIAN_POINT('',(-29.25,31.287345031,-3.150026102));
#1225=VERTEX_POINT('',#1224);
#1226=CARTESIAN_POINT('',(-29.25,31.287345031,-3.150026102));
#1227=DIRECTION('',(-0.,1.,-0.));
#1228=VECTOR('',#1227,1.3);
#1229=LINE('',#1226,#1228);
#1230=EDGE_CURVE('',#1225,#1216,#1229,.T.);
#1231=ORIENTED_EDGE('',*,*,#1230,.F.);
#1232=CARTESIAN_POINT('',(-29.25,32.287345031,-2.150026102));
#1233=VERTEX_POINT('',#1232);
#1234=CARTESIAN_POINT('',(-29.25,31.287345031,-2.150026102));
#1235=DIRECTION('',(-1.,-0.,-0.));
#1236=DIRECTION('',(-0.,1.,0.));
#1237=AXIS2_PLACEMENT_3D('',#1234,#1235,#1236);
#1238=CIRCLE('',#1237,1.);
#1239=EDGE_CURVE('',#1233,#1225,#1238,.T.);
#1240=ORIENTED_EDGE('',*,*,#1239,.F.);
#1241=CARTESIAN_POINT('',(-29.25,31.287345031,-1.150026102));
#1242=VERTEX_POINT('',#1241);
#1243=CARTESIAN_POINT('',(-29.25,31.287345031,-2.150026102));
#1244=DIRECTION('',(-1.,-0.,-0.));
#1245=DIRECTION('',(-0.,1.,0.));
#1246=AXIS2_PLACEMENT_3D('',#1243,#1244,#1245);
#1247=CIRCLE('',#1246,1.);
#1248=EDGE_CURVE('',#1242,#1233,#1247,.T.);
#1249=ORIENTED_EDGE('',*,*,#1248,.F.);
#1250=CARTESIAN_POINT('',(-29.25,32.587345031,-1.150026102));
#1251=VERTEX_POINT('',#1250);
#1252=CARTESIAN_POINT('',(-29.25,31.287345031,-1.150026102));
#1253=DIRECTION('',(-0.,1.,0.));
#1254=VECTOR('',#1253,1.3);
#1255=LINE('',#1252,#1254);
#1256=EDGE_CURVE('',#1242,#1251,#1255,.T.);
#1257=ORIENTED_EDGE('',*,*,#1256,.T.);
#1258=CARTESIAN_POINT('',(-29.25,32.587345031,-1.650026102));
#1259=DIRECTION('',(-1.,-0.,-0.));
#1260=DIRECTION('',(-0.,1.,0.));
#1261=AXIS2_PLACEMENT_3D('',#1258,#1259,#1260);
#1262=CIRCLE('',#1261,0.5);
#1263=EDGE_CURVE('',#1251,#1206,#1262,.T.);
#1264=ORIENTED_EDGE('',*,*,#1263,.T.);
#1265=EDGE_LOOP('',(#1214,#1223,#1231,#1240,#1249,#1257,#1264));
#1266=FACE_BOUND('',#1265,.T.);
#1267=ADVANCED_FACE('',(#1266),#1204,.F.);
#1268=CARTESIAN_POINT('',(-29.25,33.087345031,-3.050026102));
#1269=DIRECTION('',(0.,-1.,0.));
#1270=DIRECTION('',(1.,0.,0.));
#1271=AXIS2_PLACEMENT_3D('',#1268,#1269,#1270);
#1272=PLANE('',#1271);
#1273=ORIENTED_EDGE('',*,*,#1154,.T.);
#1274=CARTESIAN_POINT('',(-28.75,33.087345031,-2.650026102));
#1275=DIRECTION('',(-1.,-0.,-0.));
#1276=VECTOR('',#1275,0.5);
#1277=LINE('',#1274,#1276);
#1278=EDGE_CURVE('',#1140,#1208,#1277,.T.);
#1279=ORIENTED_EDGE('',*,*,#1278,.T.);
#1280=ORIENTED_EDGE('',*,*,#1213,.F.);
#1281=CARTESIAN_POINT('',(-29.25,33.087345031,-1.650026102));
#1282=DIRECTION('',(1.,0.,0.));
#1283=VECTOR('',#1282,0.5);
#1284=LINE('',#1281,#1283);
#1285=EDGE_CURVE('',#1206,#1149,#1284,.T.);
#1286=ORIENTED_EDGE('',*,*,#1285,.T.);
#1287=EDGE_LOOP('',(#1273,#1279,#1280,#1286));
#1288=FACE_BOUND('',#1287,.T.);
#1289=ADVANCED_FACE('',(#1288),#1272,.F.);
#1290=CARTESIAN_POINT('',(-29.25,29.487345031,-1.150026102));
#1291=DIRECTION('',(-0.,0.,-1.));
#1292=DIRECTION('',(0.,1.,0.));
#1293=AXIS2_PLACEMENT_3D('',#1290,#1291,#1292);
#1294=PLANE('',#1293);
#1295=ORIENTED_EDGE('',*,*,#1119,.F.);
#1296=CARTESIAN_POINT('',(-29.25,26.387345031,-1.150026102));
#1297=DIRECTION('',(1.,0.,0.));
#1298=VECTOR('',#1297,0.5);
#1299=LINE('',#1296,#1298);
#1300=EDGE_CURVE('',#1107,#1166,#1299,.T.);
#1301=ORIENTED_EDGE('',*,*,#1300,.T.);
#1302=ORIENTED_EDGE('',*,*,#1171,.T.);
#1303=CARTESIAN_POINT('',(-28.75,32.587345031,-1.150026102));
#1304=DIRECTION('',(-1.,-0.,-0.));
#1305=VECTOR('',#1304,0.5);
#1306=LINE('',#1303,#1305);
#1307=EDGE_CURVE('',#1157,#1251,#1306,.T.);
#1308=ORIENTED_EDGE('',*,*,#1307,.T.);
#1309=ORIENTED_EDGE('',*,*,#1256,.F.);
#1310=CARTESIAN_POINT('',(-30.45,31.287345031,-1.150026102));
#1311=VERTEX_POINT('',#1310);
#1312=CARTESIAN_POINT('',(-30.45,31.287345031,-1.150026102));
#1313=DIRECTION('',(1.,0.,-0.));
#1314=VECTOR('',#1313,1.2);
#1315=LINE('',#1312,#1314);
#1316=EDGE_CURVE('',#1311,#1242,#1315,.T.);
#1317=ORIENTED_EDGE('',*,*,#1316,.F.);
#1318=CARTESIAN_POINT('',(-30.45,27.687345031,-1.150026102));
#1319=VERTEX_POINT('',#1318);
#1320=CARTESIAN_POINT('',(-30.45,27.687345031,-1.150026102));
#1321=DIRECTION('',(-0.,1.,0.));
#1322=VECTOR('',#1321,3.6);
#1323=LINE('',#1320,#1322);
#1324=EDGE_CURVE('',#1319,#1311,#1323,.T.);
#1325=ORIENTED_EDGE('',*,*,#1324,.F.);
#1326=CARTESIAN_POINT('',(-30.45,27.687345031,-1.150026102));
#1327=DIRECTION('',(1.,0.,0.));
#1328=VECTOR('',#1327,1.2);
#1329=LINE('',#1326,#1328);
#1330=EDGE_CURVE('',#1319,#1064,#1329,.T.);
#1331=ORIENTED_EDGE('',*,*,#1330,.T.);
#1332=EDGE_LOOP('',(#1295,#1301,#1302,#1308,#1309,#1317,#1325,#1331));
#1333=FACE_BOUND('',#1332,.T.);
#1334=ADVANCED_FACE('',(#1333),#1294,.F.);
#1335=CARTESIAN_POINT('',(-29.25,25.887345031,-2.050026102));
#1336=DIRECTION('',(-0.,1.,0.));
#1337=DIRECTION('',(-1.,-0.,0.));
#1338=AXIS2_PLACEMENT_3D('',#1335,#1336,#1337);
#1339=PLANE('',#1338);
#1340=ORIENTED_EDGE('',*,*,#1188,.T.);
#1341=CARTESIAN_POINT('',(-28.75,25.887345031,-1.650026102));
#1342=DIRECTION('',(-1.,-0.,-0.));
#1343=VECTOR('',#1342,0.5);
#1344=LINE('',#1341,#1343);
#1345=EDGE_CURVE('',#1174,#1099,#1344,.T.);
#1346=ORIENTED_EDGE('',*,*,#1345,.T.);
#1347=ORIENTED_EDGE('',*,*,#1104,.F.);
#1348=CARTESIAN_POINT('',(-29.25,25.887345031,-2.650026102));
#1349=DIRECTION('',(1.,0.,0.));
#1350=VECTOR('',#1349,0.5);
#1351=LINE('',#1348,#1350);
#1352=EDGE_CURVE('',#1090,#1183,#1351,.T.);
#1353=ORIENTED_EDGE('',*,*,#1352,.T.);
#1354=EDGE_LOOP('',(#1340,#1346,#1347,#1353));
#1355=FACE_BOUND('',#1354,.T.);
#1356=ADVANCED_FACE('',(#1355),#1339,.F.);
#1357=CARTESIAN_POINT('',(-29.25,29.487345031,-3.150026102));
#1358=DIRECTION('',(0.,-0.,-1.));
#1359=DIRECTION('',(0.,1.,-0.));
#1360=AXIS2_PLACEMENT_3D('',#1357,#1358,#1359);
#1361=PLANE('',#1360);
#1362=ORIENTED_EDGE('',*,*,#1230,.T.);
#1363=CARTESIAN_POINT('',(-29.25,32.587345031,-3.150026102));
#1364=DIRECTION('',(1.,0.,0.));
#1365=VECTOR('',#1364,0.5);
#1366=LINE('',#1363,#1365);
#1367=EDGE_CURVE('',#1216,#1132,#1366,.T.);
#1368=ORIENTED_EDGE('',*,*,#1367,.T.);
#1369=ORIENTED_EDGE('',*,*,#1137,.F.);
#1370=CARTESIAN_POINT('',(-28.75,26.387345031,-3.150026102));
#1371=DIRECTION('',(-1.,-0.,-0.));
#1372=VECTOR('',#1371,0.5);
#1373=LINE('',#1370,#1372);
#1374=EDGE_CURVE('',#1130,#1082,#1373,.T.);
#1375=ORIENTED_EDGE('',*,*,#1374,.T.);
#1376=ORIENTED_EDGE('',*,*,#1087,.T.);
#1377=CARTESIAN_POINT('',(-30.45,27.687345031,-3.150026102));
#1378=VERTEX_POINT('',#1377);
#1379=CARTESIAN_POINT('',(-30.45,27.687345031,-3.150026102));
#1380=DIRECTION('',(1.,0.,-0.));
#1381=VECTOR('',#1380,1.2);
#1382=LINE('',#1379,#1381);
#1383=EDGE_CURVE('',#1378,#1073,#1382,.T.);
#1384=ORIENTED_EDGE('',*,*,#1383,.F.);
#1385=CARTESIAN_POINT('',(-30.45,31.287345031,-3.150026102));
#1386=VERTEX_POINT('',#1385);
#1387=CARTESIAN_POINT('',(-30.45,31.287345031,-3.150026102));
#1388=DIRECTION('',(0.,-1.,0.));
#1389=VECTOR('',#1388,3.6);
#1390=LINE('',#1387,#1389);
#1391=EDGE_CURVE('',#1386,#1378,#1390,.T.);
#1392=ORIENTED_EDGE('',*,*,#1391,.F.);
#1393=CARTESIAN_POINT('',(-30.45,31.287345031,-3.150026102));
#1394=DIRECTION('',(1.,0.,0.));
#1395=VECTOR('',#1394,1.2);
#1396=LINE('',#1393,#1395);
#1397=EDGE_CURVE('',#1386,#1225,#1396,.T.);
#1398=ORIENTED_EDGE('',*,*,#1397,.T.);
#1399=EDGE_LOOP('',(#1362,#1368,#1369,#1375,#1376,#1384,#1392,#1398));
#1400=FACE_BOUND('',#1399,.T.);
#1401=ADVANCED_FACE('',(#1400),#1361,.T.);
#1402=CARTESIAN_POINT('',(-29.25,32.587345031,-2.650026102));
#1403=DIRECTION('',(-1.,-0.,0.));
#1404=DIRECTION('',(0.,-1.,0.));
#1405=AXIS2_PLACEMENT_3D('',#1402,#1403,#1404);
#1406=CYLINDRICAL_SURFACE('',#1405,0.5);
#1407=ORIENTED_EDGE('',*,*,#1222,.F.);
#1408=ORIENTED_EDGE('',*,*,#1278,.F.);
#1409=ORIENTED_EDGE('',*,*,#1146,.F.);
#1410=ORIENTED_EDGE('',*,*,#1367,.F.);
#1411=EDGE_LOOP('',(#1407,#1408,#1409,#1410));
#1412=FACE_BOUND('',#1411,.T.);
#1413=ADVANCED_FACE('',(#1412),#1406,.T.);
#1414=CARTESIAN_POINT('',(-29.25,26.387345031,-1.650026102));
#1415=DIRECTION('',(1.,0.,0.));
#1416=DIRECTION('',(-0.,1.,0.));
#1417=AXIS2_PLACEMENT_3D('',#1414,#1415,#1416);
#1418=CYLINDRICAL_SURFACE('',#1417,0.5);
#1419=ORIENTED_EDGE('',*,*,#1113,.F.);
#1420=ORIENTED_EDGE('',*,*,#1345,.F.);
#1421=ORIENTED_EDGE('',*,*,#1180,.F.);
#1422=ORIENTED_EDGE('',*,*,#1300,.F.);
#1423=EDGE_LOOP('',(#1419,#1420,#1421,#1422));
#1424=FACE_BOUND('',#1423,.T.);
#1425=ADVANCED_FACE('',(#1424),#1418,.T.);
#1426=CARTESIAN_POINT('',(-29.25,32.587345031,-1.650026102));
#1427=DIRECTION('',(1.,0.,0.));
#1428=DIRECTION('',(-0.,1.,0.));
#1429=AXIS2_PLACEMENT_3D('',#1426,#1427,#1428);
#1430=CYLINDRICAL_SURFACE('',#1429,0.5);
#1431=ORIENTED_EDGE('',*,*,#1263,.F.);
#1432=ORIENTED_EDGE('',*,*,#1307,.F.);
#1433=ORIENTED_EDGE('',*,*,#1163,.F.);
#1434=ORIENTED_EDGE('',*,*,#1285,.F.);
#1435=EDGE_LOOP('',(#1431,#1432,#1433,#1434));
#1436=FACE_BOUND('',#1435,.T.);
#1437=ADVANCED_FACE('',(#1436),#1430,.T.);
#1438=CARTESIAN_POINT('',(-29.25,26.387345031,-2.650026102));
#1439=DIRECTION('',(-1.,-0.,0.));
#1440=DIRECTION('',(0.,-1.,0.));
#1441=AXIS2_PLACEMENT_3D('',#1438,#1439,#1440);
#1442=CYLINDRICAL_SURFACE('',#1441,0.5);
#1443=ORIENTED_EDGE('',*,*,#1096,.F.);
#1444=ORIENTED_EDGE('',*,*,#1374,.F.);
#1445=ORIENTED_EDGE('',*,*,#1195,.F.);
#1446=ORIENTED_EDGE('',*,*,#1352,.F.);
#1447=EDGE_LOOP('',(#1443,#1444,#1445,#1446));
#1448=FACE_BOUND('',#1447,.T.);
#1449=ADVANCED_FACE('',(#1448),#1442,.T.);
#1450=CARTESIAN_POINT('',(-29.25,27.687345031,-2.150026102));
#1451=DIRECTION('',(-1.,-0.,0.));
#1452=DIRECTION('',(0.,-1.,0.));
#1453=AXIS2_PLACEMENT_3D('',#1450,#1451,#1452);
#1454=CYLINDRICAL_SURFACE('',#1453,1.);
#1455=CARTESIAN_POINT('',(-30.45,26.687345031,-2.150026102));
#1456=VERTEX_POINT('',#1455);
#1457=CARTESIAN_POINT('',(-30.45,26.687345031,-2.150026102));
#1458=DIRECTION('',(1.,0.,-0.));
#1459=VECTOR('',#1458,1.2);
#1460=LINE('',#1457,#1459);
#1461=EDGE_CURVE('',#1456,#1062,#1460,.T.);
#1462=ORIENTED_EDGE('',*,*,#1461,.T.);
#1463=ORIENTED_EDGE('',*,*,#1070,.T.);
#1464=ORIENTED_EDGE('',*,*,#1330,.F.);
#1465=CARTESIAN_POINT('',(-30.45,27.687345031,-2.150026102));
#1466=DIRECTION('',(-1.,-0.,0.));
#1467=DIRECTION('',(0.,-1.,0.));
#1468=AXIS2_PLACEMENT_3D('',#1465,#1466,#1467);
#1469=CIRCLE('',#1468,1.);
#1470=EDGE_CURVE('',#1456,#1319,#1469,.T.);
#1471=ORIENTED_EDGE('',*,*,#1470,.F.);
#1472=EDGE_LOOP('',(#1462,#1463,#1464,#1471));
#1473=FACE_BOUND('',#1472,.T.);
#1474=ADVANCED_FACE('',(#1473),#1454,.T.);
#1475=CARTESIAN_POINT('',(-30.45,31.287345031,-2.150026102));
#1476=DIRECTION('',(1.,0.,0.));
#1477=DIRECTION('',(-0.,1.,0.));
#1478=AXIS2_PLACEMENT_3D('',#1475,#1476,#1477);
#1479=CYLINDRICAL_SURFACE('',#1478,1.);
#1480=CARTESIAN_POINT('',(-30.45,32.287345031,-2.150026102));
#1481=VERTEX_POINT('',#1480);
#1482=CARTESIAN_POINT('',(-29.25,32.287345031,-2.150026102));
#1483=DIRECTION('',(-1.,-0.,-0.));
#1484=VECTOR('',#1483,1.2);
#1485=LINE('',#1482,#1484);
#1486=EDGE_CURVE('',#1233,#1481,#1485,.T.);
#1487=ORIENTED_EDGE('',*,*,#1486,.T.);
#1488=CARTESIAN_POINT('',(-30.45,31.287345031,-2.150026102));
#1489=DIRECTION('',(-1.,-0.,0.));
#1490=DIRECTION('',(0.,-1.,0.));
#1491=AXIS2_PLACEMENT_3D('',#1488,#1489,#1490);
#1492=CIRCLE('',#1491,1.);
#1493=EDGE_CURVE('',#1311,#1481,#1492,.T.);
#1494=ORIENTED_EDGE('',*,*,#1493,.F.);
#1495=ORIENTED_EDGE('',*,*,#1316,.T.);
#1496=ORIENTED_EDGE('',*,*,#1248,.T.);
#1497=EDGE_LOOP('',(#1487,#1494,#1495,#1496));
#1498=FACE_BOUND('',#1497,.T.);
#1499=ADVANCED_FACE('',(#1498),#1479,.T.);
#1500=CARTESIAN_POINT('',(-30.45,43.27,-3.7));
#1501=DIRECTION('',(-1.,-0.,0.));
#1502=DIRECTION('',(0.,-1.,0.));
#1503=AXIS2_PLACEMENT_3D('',#1500,#1501,#1502);
#1504=PLANE('',#1503);
#1505=ORIENTED_EDGE('',*,*,#1391,.T.);
#1506=CARTESIAN_POINT('',(-30.45,27.687345031,-2.150026102));
#1507=DIRECTION('',(-1.,-0.,0.));
#1508=DIRECTION('',(0.,-1.,0.));
#1509=AXIS2_PLACEMENT_3D('',#1506,#1507,#1508);
#1510=CIRCLE('',#1509,1.);
#1511=EDGE_CURVE('',#1378,#1456,#1510,.T.);
#1512=ORIENTED_EDGE('',*,*,#1511,.T.);
#1513=ORIENTED_EDGE('',*,*,#1470,.T.);
#1514=ORIENTED_EDGE('',*,*,#1324,.T.);
#1515=ORIENTED_EDGE('',*,*,#1493,.T.);
#1516=CARTESIAN_POINT('',(-30.45,31.287345031,-2.150026102));
#1517=DIRECTION('',(-1.,-0.,0.));
#1518=DIRECTION('',(0.,-1.,0.));
#1519=AXIS2_PLACEMENT_3D('',#1516,#1517,#1518);
#1520=CIRCLE('',#1519,1.);
#1521=EDGE_CURVE('',#1481,#1386,#1520,.T.);
#1522=ORIENTED_EDGE('',*,*,#1521,.T.);
#1523=EDGE_LOOP('',(#1505,#1512,#1513,#1514,#1515,#1522));
#1524=FACE_BOUND('',#1523,.T.);
#1525=ADVANCED_FACE('',(#1524),#1504,.T.);
#1526=CARTESIAN_POINT('',(-29.25,27.687345031,-2.150026102));
#1527=DIRECTION('',(-1.,-0.,0.));
#1528=DIRECTION('',(0.,-1.,0.));
#1529=AXIS2_PLACEMENT_3D('',#1526,#1527,#1528);
#1530=CYLINDRICAL_SURFACE('',#1529,1.);
#1531=ORIENTED_EDGE('',*,*,#1461,.F.);
#1532=ORIENTED_EDGE('',*,*,#1511,.F.);
#1533=ORIENTED_EDGE('',*,*,#1383,.T.);
#1534=ORIENTED_EDGE('',*,*,#1079,.T.);
#1535=EDGE_LOOP('',(#1531,#1532,#1533,#1534));
#1536=FACE_BOUND('',#1535,.T.);
#1537=ADVANCED_FACE('',(#1536),#1530,.T.);
#1538=CARTESIAN_POINT('',(-30.45,31.287345031,-2.150026102));
#1539=DIRECTION('',(1.,0.,0.));
#1540=DIRECTION('',(-0.,1.,0.));
#1541=AXIS2_PLACEMENT_3D('',#1538,#1539,#1540);
#1542=CYLINDRICAL_SURFACE('',#1541,1.);
#1543=ORIENTED_EDGE('',*,*,#1486,.F.);
#1544=ORIENTED_EDGE('',*,*,#1239,.T.);
#1545=ORIENTED_EDGE('',*,*,#1397,.F.);
#1546=ORIENTED_EDGE('',*,*,#1521,.F.);
#1547=EDGE_LOOP('',(#1543,#1544,#1545,#1546));
#1548=FACE_BOUND('',#1547,.T.);
#1549=ADVANCED_FACE('',(#1548),#1542,.T.);
#1550=CLOSED_SHELL('',(#1123,#1199,#1267,#1289,#1334,#1356,#1401,#1413,#1425,#1437,#1449,#1474,#1499,#1525,#1537,#1549));
#1551=MANIFOLD_SOLID_BREP('wake',#1550);
#1055=STYLED_ITEM('',(#557),#1551);
#35=SHAPE_REPRESENTATION('\X2\6309952E\X0\',(#15),#33);
#36=ADVANCED_BREP_SHAPE_REPRESENTATION('\X2\6309952E\X0\',(#550,#1054,#1551),#33);
#1559=SHAPE_REPRESENTATION_RELATIONSHIP('','',#35,#36);
#1560=CARTESIAN_POINT('',(0.,0.,0.));
#1561=DIRECTION('',(0.,0.,1.));
#1562=DIRECTION('',(1.,0.,0.));
#1563=AXIS2_PLACEMENT_3D('',#1560,#1561,#1562);
#1565=MAPPED_ITEM('',#1564,#1563);
#1564=REPRESENTATION_MAP(#1563,#35);
#1566=APPLICATION_CONTEXT('Managed model based 3d engineering');
#1567=APPLICATION_PROTOCOL_DEFINITION('international standard','ap242_managed_model_based_3d_engineering',2014,#1566);
#1568=PRODUCT_CONTEXT('',#1566,'mechanical');
#1569=PRODUCT_DEFINITION_CONTEXT('part definition',#1566,'design');
#43=PRODUCT('\X2\6309952E\X0\','\X2\6309952E\X0\','',(#1568));
#1570=PRODUCT_RELATED_PRODUCT_CATEGORY('part','',(#43));
#1571=PRODUCT_DEFINITION_FORMATION_WITH_SPECIFIED_SOURCE('','',#43,.NOT_KNOWN.);
#44=PRODUCT_DEFINITION('design','',#1571,#1569);
#42=PRODUCT_DEFINITION_SHAPE('','',#44);
#1572=SHAPE_DEFINITION_REPRESENTATION(#42,#35);
#34=DRAUGHTING_MODEL('',(#1565),#33);
#16=SHAPE_REPRESENTATION('root',(#15,#48),#10);
#1573=CARTESIAN_POINT('',(0.,0.,0.));
#1574=DIRECTION('',(0.,0.,1.));
#1575=DIRECTION('',(1.,0.,0.));
#1576=AXIS2_PLACEMENT_3D('',#1573,#1574,#1575);
#1578=MAPPED_ITEM('',#1577,#1576);
#1577=REPRESENTATION_MAP(#1576,#16);
#24=PRODUCT('root','root','',(#1568));
#1579=PRODUCT_RELATED_PRODUCT_CATEGORY('part','',(#24));
#1580=PRODUCT_DEFINITION_FORMATION_WITH_SPECIFIED_SOURCE('','',#24,.NOT_KNOWN.);
#25=PRODUCT_DEFINITION('design','',#1580,#1569);
#23=PRODUCT_DEFINITION_SHAPE('','',#25);
#1581=SHAPE_DEFINITION_REPRESENTATION(#23,#16);
#11=DRAUGHTING_MODEL('',(#1578),#10);
#1582=DESCRIPTIVE_REPRESENTATION_ITEM('KEY','/private/var/mobile/Containers/Data/Application/4BAA6A96-AB08-4434-80E5-6C712A65BC40/tmp/A4E3A262-20B1-44FB-ADF2-DCA554BF5E3F.tmp');
#1583=PROPERTY_DEFINITION('KEY','',#25);
#1584=REPRESENTATION('',(#1582),#10);
#1585=PROPERTY_DEFINITION_REPRESENTATION(#1583,#1584);
#1586=GENERAL_PROPERTY('','KEY','');
#1587=GENERAL_PROPERTY_ASSOCIATION('','',#1586,#1583);
#1=MECHANICAL_DESIGN_GEOMETRIC_PRESENTATION_REPRESENTATION('',(#54,#558,#1055),#10);
ENDSEC;
END-ISO-10303-21;
